<?xml version="1.0" encoding="UTF-8" standalone="no"?>
<!DOCTYPE svg PUBLIC "-//W3C//DTD SVG 1.1//EN"
 "http://www.w3.org/Graphics/SVG/1.1/DTD/svg11.dtd">
<!-- Generated by graphviz version 2.40.1 (20161225.0304)
 -->
<!-- Title: %0 Pages: 1 -->
<svg width="703pt" height="111pt"
 viewBox="0.00 0.00 703.10 111.05" xmlns="http://www.w3.org/2000/svg" xmlns:xlink="http://www.w3.org/1999/xlink">
<g id="graph0" class="graph" transform="scale(1 1) rotate(0) translate(4 107.0499)">
<title>%0</title>
<polygon fill="#ffffff" stroke="transparent" points="-4,4 -4,-107.0499 699.1024,-107.0499 699.1024,4 -4,4"/>
<!-- A -->
<g id="node1" class="node">
<title>A</title>
<ellipse fill="none" stroke="#000000" cx="27" cy="-31.0499" rx="27" ry="18"/>
<text text-anchor="middle" x="27" y="-26.8499" font-family="Times,serif" font-size="14.00" fill="#000000">A</text>
</g>
<!-- B -->
<g id="node2" class="node">
<title>B</title>
<ellipse fill="none" stroke="#000000" cx="141.8892" cy="-31.0499" rx="27" ry="18"/>
<text text-anchor="middle" x="141.8892" y="-26.8499" font-family="Times,serif" font-size="14.00" fill="#000000">B</text>
</g>
<!-- A&#45;&#45;B -->
<g id="edge1" class="edge">
<title>A&#45;&#45;B</title>
<path fill="none" stroke="#000000" d="M54.2271,-31.0499C72.5414,-31.0499 96.5842,-31.0499 114.8575,-31.0499"/>
<text text-anchor="middle" x="84.4446" y="-35.2499" font-family="Times,serif" font-size="14.00" fill="#000000">MM</text>
</g>
<!-- C -->
<g id="node3" class="node">
<title>C</title>
<ellipse fill="none" stroke="#000000" cx="245.8892" cy="-85.0499" rx="27" ry="18"/>
<text text-anchor="middle" x="245.8892" y="-80.8499" font-family="Times,serif" font-size="14.00" fill="#000000">C</text>
</g>
<!-- A&#45;&#45;C -->
<g id="edge2" class="edge">
<title>A&#45;&#45;C</title>
<path fill="none" stroke="#000000" d="M48.5718,-42.3043C55.8693,-45.789 64.158,-49.4037 72,-52.0499 122.5145,-69.0956 184.4296,-78.1941 219.0897,-82.2881"/>
<text text-anchor="middle" x="141.8892" y="-79.2499" font-family="Times,serif" font-size="14.00" fill="#000000">56</text>
</g>
<!-- D -->
<g id="node4" class="node">
<title>D</title>
<ellipse fill="none" stroke="#000000" cx="356.1024" cy="-26.0499" rx="27" ry="18"/>
<text text-anchor="middle" x="356.1024" y="-21.8499" font-family="Times,serif" font-size="14.00" fill="#000000">D</text>
</g>
<!-- A&#45;&#45;D -->
<g id="edge3" class="edge">
<title>A&#45;&#45;D</title>
<path fill="none" stroke="#000000" d="M50.4286,-21.758C67.884,-15.3546 92.4739,-7.4153 114.8892,-4.0499 193.069,7.688 286.5101,-9.6789 330.6346,-19.7332"/>
<text text-anchor="middle" x="193.8892" y="-5.2499" font-family="Times,serif" font-size="14.00" fill="#000000">78</text>
</g>
<!-- B&#45;&#45;C -->
<g id="edge4" class="edge">
<title>B&#45;&#45;C</title>
<path fill="none" stroke="#000000" d="M163.8603,-41.6379C175.0112,-47.0838 188.7347,-53.8969 200.8892,-60.2499 208.7948,-64.3821 217.3906,-69.0702 224.9311,-73.2493"/>
<text text-anchor="middle" x="193.8892" y="-65.2499" font-family="Times,serif" font-size="14.00" fill="#000000">34</text>
</g>
<!-- B&#45;&#45;D -->
<g id="edge5" class="edge">
<title>B&#45;&#45;D</title>
<path fill="none" stroke="#000000" d="M169.0194,-30.4167C210.1117,-29.4575 287.6934,-27.6467 328.8549,-26.6859"/>
<text text-anchor="middle" x="245.8892" y="-34.2499" font-family="Times,serif" font-size="14.00" fill="#000000">67</text>
</g>
<!-- C&#45;&#45;D -->
<g id="edge6" class="edge">
<title>C&#45;&#45;D</title>
<path fill="none" stroke="#000000" d="M266.9019,-73.3522C274.4475,-69.1827 283.0326,-64.4744 290.8892,-60.2499 305.4142,-52.4398 321.8598,-43.8167 334.6021,-37.1831"/>
<text text-anchor="middle" x="300.9958" y="-65.2499" font-family="Times,serif" font-size="14.00" fill="#000000">DD</text>
</g>
<!-- E -->
<g id="node5" class="node">
<title>E</title>
<ellipse fill="none" stroke="#000000" cx="460.1024" cy="-85.0499" rx="27" ry="18"/>
<text text-anchor="middle" x="460.1024" y="-80.8499" font-family="Times,serif" font-size="14.00" fill="#000000">E</text>
</g>
<!-- C&#45;&#45;E -->
<g id="edge7" class="edge">
<title>C&#45;&#45;E</title>
<path fill="none" stroke="#000000" d="M273.0194,-85.0499C314.1117,-85.0499 391.6934,-85.0499 432.8549,-85.0499"/>
<text text-anchor="middle" x="356.1024" y="-89.2499" font-family="Times,serif" font-size="14.00" fill="#000000">90</text>
</g>
<!-- D&#45;&#45;E -->
<g id="edge8" class="edge">
<title>D&#45;&#45;E</title>
<path fill="none" stroke="#000000" d="M377.1484,-37.9894C395.3106,-48.293 421.3939,-63.0903 439.4427,-73.3295"/>
<text text-anchor="middle" x="408.1024" y="-64.2499" font-family="Times,serif" font-size="14.00" fill="#000000">45</text>
</g>
<!-- F -->
<g id="node6" class="node">
<title>F</title>
<ellipse fill="none" stroke="#000000" cx="564.1024" cy="-37.0499" rx="27" ry="18"/>
<text text-anchor="middle" x="564.1024" y="-32.8499" font-family="Times,serif" font-size="14.00" fill="#000000">F</text>
</g>
<!-- D&#45;&#45;F -->
<g id="edge9" class="edge">
<title>D&#45;&#45;F</title>
<path fill="none" stroke="#000000" d="M383.2948,-27.488C423.1578,-29.5961 497.0365,-33.5032 536.9034,-35.6115"/>
<text text-anchor="middle" x="460.1024" y="-37.2499" font-family="Times,serif" font-size="14.00" fill="#000000">56</text>
</g>
<!-- E&#45;&#45;F -->
<g id="edge10" class="edge">
<title>E&#45;&#45;F</title>
<path fill="none" stroke="#000000" d="M480.423,-73.1237C488.0504,-68.8415 496.8671,-64.1186 505.1024,-60.2499 516.4591,-54.9149 529.4011,-49.7307 540.2645,-45.621"/>
<text text-anchor="middle" x="512.1024" y="-65.2499" font-family="Times,serif" font-size="14.00" fill="#000000">78</text>
</g>
<!-- G -->
<g id="node7" class="node">
<title>G</title>
<ellipse fill="none" stroke="#000000" cx="668.1024" cy="-64.0499" rx="27" ry="18"/>
<text text-anchor="middle" x="668.1024" y="-59.8499" font-family="Times,serif" font-size="14.00" fill="#000000">G</text>
</g>
<!-- E&#45;&#45;G -->
<g id="edge11" class="edge">
<title>E&#45;&#45;G</title>
<path fill="none" stroke="#000000" d="M487.345,-84.4694C519.8189,-83.4876 575.6584,-80.8823 623.1024,-74.0499 629.4395,-73.1373 636.2104,-71.8185 642.5252,-70.4365"/>
<text text-anchor="middle" x="564.1024" y="-87.2499" font-family="Times,serif" font-size="14.00" fill="#000000">32</text>
</g>
<!-- F&#45;&#45;G -->
<g id="edge12" class="edge">
<title>F&#45;&#45;G</title>
<path fill="none" stroke="#000000" d="M589.2779,-43.5859C605.5091,-47.7997 626.5418,-53.2601 642.7983,-57.4806"/>
<text text-anchor="middle" x="616.1024" y="-57.2499" font-family="Times,serif" font-size="14.00" fill="#000000">21</text>
</g>
</g>
</svg>
