<?xml version="1.0" encoding="UTF-8" standalone="no"?>
<!DOCTYPE svg PUBLIC "-//W3C//DTD SVG 1.1//EN"
 "http://www.w3.org/Graphics/SVG/1.1/DTD/svg11.dtd">
<!-- Generated by graphviz version 2.40.1 (20161225.0304)
 -->
<!-- Title: %0 Pages: 1 -->
<svg width="692pt" height="112pt"
 viewBox="0.00 0.00 692.21 111.68" xmlns="http://www.w3.org/2000/svg" xmlns:xlink="http://www.w3.org/1999/xlink">
<g id="graph0" class="graph" transform="scale(1 1) rotate(0) translate(4 107.6816)">
<title>%0</title>
<polygon fill="#ffffff" stroke="transparent" points="-4,4 -4,-107.6816 688.2132,-107.6816 688.2132,4 -4,4"/>
<!-- A -->
<g id="node1" class="node">
<title>A</title>
<ellipse fill="none" stroke="#000000" cx="27" cy="-31.6816" rx="27" ry="18"/>
<text text-anchor="middle" x="27" y="-27.4816" font-family="Times,serif" font-size="14.00" fill="#000000">A</text>
</g>
<!-- B -->
<g id="node2" class="node">
<title>B</title>
<ellipse fill="none" stroke="#000000" cx="131" cy="-31.6816" rx="27" ry="18"/>
<text text-anchor="middle" x="131" y="-27.4816" font-family="Times,serif" font-size="14.00" fill="#000000">B</text>
</g>
<!-- A&#45;&#45;B -->
<g id="edge1" class="edge">
<title>A&#45;&#45;B</title>
<path fill="none" stroke="#000000" d="M54.0533,-31.6816C69.3403,-31.6816 88.397,-31.6816 103.7209,-31.6816"/>
<text text-anchor="middle" x="79" y="-35.8816" font-family="Times,serif" font-size="14.00" fill="#000000">34</text>
</g>
<!-- C -->
<g id="node3" class="node">
<title>C</title>
<ellipse fill="none" stroke="#000000" cx="235" cy="-85.6816" rx="27" ry="18"/>
<text text-anchor="middle" x="235" y="-81.4816" font-family="Times,serif" font-size="14.00" fill="#000000">C</text>
</g>
<!-- A&#45;&#45;C -->
<g id="edge2" class="edge">
<title>A&#45;&#45;C</title>
<path fill="none" stroke="#000000" d="M48.6059,-42.8368C55.9057,-46.3148 64.1871,-49.9507 72,-52.6816 118.4709,-68.9252 175.3441,-78.1699 208.15,-82.5331"/>
<text text-anchor="middle" x="131" y="-78.8816" font-family="Times,serif" font-size="14.00" fill="#000000">56</text>
</g>
<!-- D -->
<g id="node4" class="node">
<title>D</title>
<ellipse fill="none" stroke="#000000" cx="345.2132" cy="-26.6816" rx="27" ry="18"/>
<text text-anchor="middle" x="345.2132" y="-22.4816" font-family="Times,serif" font-size="14.00" fill="#000000">D</text>
</g>
<!-- A&#45;&#45;D -->
<g id="edge3" class="edge">
<title>A&#45;&#45;D</title>
<path fill="none" stroke="#000000" d="M49.3758,-21.577C64.463,-15.333 85.0074,-7.915 104,-4.6816 182.142,8.6215 275.9885,-9.5942 320.0451,-20.1251"/>
<text text-anchor="middle" x="183" y="-4.8816" font-family="Times,serif" font-size="14.00" fill="#000000">23</text>
</g>
<!-- B&#45;&#45;C -->
<g id="edge4" class="edge">
<title>B&#45;&#45;C</title>
<path fill="none" stroke="#000000" d="M152.9711,-42.2696C164.122,-47.7156 177.8455,-54.5286 190,-60.8816 197.9056,-65.0138 206.5014,-69.7019 214.0419,-73.8811"/>
<text text-anchor="middle" x="183" y="-65.8816" font-family="Times,serif" font-size="14.00" fill="#000000">34</text>
</g>
<!-- B&#45;&#45;D -->
<g id="edge5" class="edge">
<title>B&#45;&#45;D</title>
<path fill="none" stroke="#000000" d="M158.1302,-31.0484C199.2225,-30.0892 276.8042,-28.2784 317.9657,-27.3176"/>
<text text-anchor="middle" x="235" y="-34.8816" font-family="Times,serif" font-size="14.00" fill="#000000">MM</text>
</g>
<!-- C&#45;&#45;D -->
<g id="edge6" class="edge">
<title>C&#45;&#45;D</title>
<path fill="none" stroke="#000000" d="M256.0127,-73.9839C263.5583,-69.8144 272.1434,-65.1061 280,-60.8816 294.525,-53.0716 310.9706,-44.4485 323.7129,-37.8149"/>
<text text-anchor="middle" x="290.1066" y="-65.8816" font-family="Times,serif" font-size="14.00" fill="#000000">DD</text>
</g>
<!-- E -->
<g id="node5" class="node">
<title>E</title>
<ellipse fill="none" stroke="#000000" cx="449.2132" cy="-85.6816" rx="27" ry="18"/>
<text text-anchor="middle" x="449.2132" y="-81.4816" font-family="Times,serif" font-size="14.00" fill="#000000">E</text>
</g>
<!-- C&#45;&#45;E -->
<g id="edge7" class="edge">
<title>C&#45;&#45;E</title>
<path fill="none" stroke="#000000" d="M262.1302,-85.6816C303.2225,-85.6816 380.8042,-85.6816 421.9657,-85.6816"/>
<text text-anchor="middle" x="345.2132" y="-89.8816" font-family="Times,serif" font-size="14.00" fill="#000000">30</text>
</g>
<!-- D&#45;&#45;E -->
<g id="edge8" class="edge">
<title>D&#45;&#45;E</title>
<path fill="none" stroke="#000000" d="M366.2592,-38.6212C384.4214,-48.9248 410.5047,-63.722 428.5535,-73.9612"/>
<text text-anchor="middle" x="397.2132" y="-64.8816" font-family="Times,serif" font-size="14.00" fill="#000000">10</text>
</g>
<!-- F -->
<g id="node6" class="node">
<title>F</title>
<ellipse fill="none" stroke="#000000" cx="553.2132" cy="-37.6816" rx="27" ry="18"/>
<text text-anchor="middle" x="553.2132" y="-33.4816" font-family="Times,serif" font-size="14.00" fill="#000000">F</text>
</g>
<!-- D&#45;&#45;F -->
<g id="edge9" class="edge">
<title>D&#45;&#45;F</title>
<path fill="none" stroke="#000000" d="M372.4056,-28.1197C412.2686,-30.2278 486.1473,-34.1349 526.0142,-36.2432"/>
<text text-anchor="middle" x="449.2132" y="-37.8816" font-family="Times,serif" font-size="14.00" fill="#000000">56</text>
</g>
<!-- E&#45;&#45;F -->
<g id="edge10" class="edge">
<title>E&#45;&#45;F</title>
<path fill="none" stroke="#000000" d="M469.5338,-73.7555C477.1612,-69.4732 485.9779,-64.7504 494.2132,-60.8816 505.5699,-55.5466 518.5119,-50.3625 529.3753,-46.2528"/>
<text text-anchor="middle" x="501.2132" y="-65.8816" font-family="Times,serif" font-size="14.00" fill="#000000">25</text>
</g>
<!-- G -->
<g id="node7" class="node">
<title>G</title>
<ellipse fill="none" stroke="#000000" cx="657.2132" cy="-64.6816" rx="27" ry="18"/>
<text text-anchor="middle" x="657.2132" y="-60.4816" font-family="Times,serif" font-size="14.00" fill="#000000">G</text>
</g>
<!-- E&#45;&#45;G -->
<g id="edge11" class="edge">
<title>E&#45;&#45;G</title>
<path fill="none" stroke="#000000" d="M476.4558,-85.1011C508.9297,-84.1194 564.7692,-81.514 612.2132,-74.6816 618.5503,-73.769 625.3212,-72.4503 631.636,-71.0683"/>
<text text-anchor="middle" x="553.2132" y="-87.8816" font-family="Times,serif" font-size="14.00" fill="#000000">12</text>
</g>
<!-- F&#45;&#45;G -->
<g id="edge12" class="edge">
<title>F&#45;&#45;G</title>
<path fill="none" stroke="#000000" d="M578.3887,-44.2176C594.6199,-48.4315 615.6526,-53.8919 631.9091,-58.1123"/>
<text text-anchor="middle" x="605.2132" y="-57.8816" font-family="Times,serif" font-size="14.00" fill="#000000">21</text>
</g>
</g>
</svg>
