<svg width="2500" height="1000"><rect width="100" height="100" x="0" y="0" fill="green" />
<rect width="100" height="100" x="0" y="100" fill="green" />
<rect width="100" height="100" x="0" y="200" fill="green" />
<rect width="100" height="100" x="100" y="200" fill="green" />
<rect width="100" height="100" x="200" y="200" fill="green" /><rect width="100" height="100" x="500" y="100" fill="blue" />
<rect width="100" height="100" x="600" y="100" fill="blue" />
<rect width="100" height="100" x="700" y="100" fill="blue" />
<rect width="100" height="100" x="700" y="0" fill="blue" />
<rect width="100" height="100" x="800" y="0" fill="blue" /><rect width="100" height="100" x="1000" y="200" fill="gray" />
<rect width="100" height="100" x="1100" y="200" fill="gray" />
<rect width="100" height="100" x="1100" y="100" fill="gray" />
<rect width="100" height="100" x="1100" y="0" fill="gray" />
<rect width="100" height="100" x="1200" y="0" fill="gray" /><rect width="100" height="100" x="1500" y="0" fill="black" />
<rect width="100" height="100" x="1500" y="100" fill="black" />
<rect width="100" height="100" x="1500" y="200" fill="black" />
<rect width="100" height="100" x="1600" y="200" fill="black" />
<rect width="100" height="100" x="1600" y="100" fill="black" />
<rect width="100" height="100" x="1600" y="0" fill="black" /><rect width="100" height="100" x="0" y="500" fill="violet" />
<rect width="100" height="100" x="0" y="600" fill="violet" />
<rect width="100" height="100" x="100" y="600" fill="violet" />
<rect width="100" height="100" x="200" y="600" fill="violet" />
<rect width="100" height="100" x="300" y="600" fill="violet" /><rect width="100" height="100" x="500" y="500" fill="aliceblue" />
<rect width="100" height="100" x="600" y="500" fill="aliceblue" />
<rect width="100" height="100" x="700" y="500" fill="aliceblue" />
<rect width="100" height="100" x="700" y="600" fill="aliceblue" />
<rect width="100" height="100" x="800" y="500" fill="aliceblue" /><rect width="100" height="100" x="1000" y="500" fill="antiquewhite" />
<rect width="100" height="100" x="1000" y="700" fill="antiquewhite" />
<rect width="100" height="100" x="1100" y="500" fill="antiquewhite" />
<rect width="100" height="100" x="1100" y="600" fill="antiquewhite" />
<rect width="100" height="100" x="1100" y="700" fill="antiquewhite" /><rect width="100" height="100" x="1500" y="500" fill="aqua" />
<rect width="100" height="100" x="1500" y="600" fill="aqua" />
<rect width="100" height="100" x="1500" y="700" fill="aqua" />
<rect width="100" height="100" x="1600" y="500" fill="aqua" />
<rect width="100" height="100" x="1600" y="600" fill="aqua" /></svg>