<?xml version="1.0" encoding="UTF-8" standalone="no"?>
<!DOCTYPE svg PUBLIC "-//W3C//DTD SVG 1.1//EN"
 "http://www.w3.org/Graphics/SVG/1.1/DTD/svg11.dtd">
<!-- Generated by graphviz version 2.40.1 (20161225.0304)
 -->
<!-- Title: %0 Pages: 1 -->
<svg width="904pt" height="1198pt"
 viewBox="0.00 0.00 904.00 1198.40" xmlns="http://www.w3.org/2000/svg" xmlns:xlink="http://www.w3.org/1999/xlink">
<g id="graph0" class="graph" transform="scale(1 1) rotate(0) translate(4 1194.4)">
<title>%0</title>
<polygon fill="#ffffff" stroke="transparent" points="-4,4 -4,-1194.4 900,-1194.4 900,4 -4,4"/>
<!-- 13 -->
<g id="node1" class="node">
<title>13</title>
<ellipse fill="none" stroke="#000000" cx="778" cy="-1172.4" rx="27" ry="18"/>
<text text-anchor="middle" x="778" y="-1168.2" font-family="Times,serif" font-size="14.00" fill="#000000">13</text>
</g>
<!-- 10 -->
<g id="node2" class="node">
<title>10</title>
<ellipse fill="none" stroke="#000000" cx="323" cy="-1083.6" rx="27" ry="18"/>
<text text-anchor="middle" x="323" y="-1079.4" font-family="Times,serif" font-size="14.00" fill="#000000">10</text>
</g>
<!-- 13&#45;&#45;10 -->
<g id="edge1" class="edge">
<title>13&#45;&#45;10</title>
<path fill="none" stroke="#000000" d="M751.2873,-1169.7088C704.5271,-1164.7614 604.9236,-1153.1689 522,-1136.4 458.4118,-1123.5411 384.9605,-1102.3754 347.5949,-1091.1452"/>
<text text-anchor="middle" x="529" y="-1123.8" font-family="Times,serif" font-size="14.00" fill="#000000">58</text>
</g>
<!-- 11 -->
<g id="node5" class="node">
<title>11</title>
<ellipse fill="none" stroke="#000000" cx="560" cy="-462" rx="27" ry="18"/>
<text text-anchor="middle" x="560" y="-457.8" font-family="Times,serif" font-size="14.00" fill="#000000">11</text>
</g>
<!-- 13&#45;&#45;11 -->
<g id="edge48" class="edge">
<title>13&#45;&#45;11</title>
<path fill="none" stroke="#000000" d="M796.4525,-1158.9506C815.6694,-1143.2375 843,-1115.3151 843,-1083.6 843,-1083.6 843,-1083.6 843,-684 843,-611.5372 841.6617,-573.9258 782,-532.8 749.3584,-510.2996 636.5669,-480.7513 585.489,-468.1365"/>
<text text-anchor="middle" x="846.5" y="-813" font-family="Times,serif" font-size="14.00" fill="#000000">3</text>
</g>
<!-- 8 -->
<g id="node8" class="node">
<title>8</title>
<ellipse fill="none" stroke="#000000" cx="323" cy="-994.8" rx="27" ry="18"/>
<text text-anchor="middle" x="323" y="-990.6" font-family="Times,serif" font-size="14.00" fill="#000000">8</text>
</g>
<!-- 13&#45;&#45;8 -->
<g id="edge44" class="edge">
<title>13&#45;&#45;8</title>
<path fill="none" stroke="#000000" d="M753.6235,-1164.648C687.9312,-1143.4508 502.2357,-1081.5033 355,-1012.8 351.1877,-1011.0211 347.2141,-1008.963 343.4159,-1006.888"/>
<text text-anchor="middle" x="577" y="-1079.4" font-family="Times,serif" font-size="14.00" fill="#000000">12</text>
</g>
<!-- 6 -->
<g id="node9" class="node">
<title>6</title>
<ellipse fill="none" stroke="#000000" cx="378" cy="-18" rx="27" ry="18"/>
<text text-anchor="middle" x="378" y="-13.8" font-family="Times,serif" font-size="14.00" fill="#000000">6</text>
</g>
<!-- 13&#45;&#45;6 -->
<g id="edge23" class="edge">
<title>13&#45;&#45;6</title>
<path fill="none" stroke="#000000" d="M802.1211,-1164.0462C832.8438,-1151.6879 882,-1125.3857 882,-1083.6 882,-1083.6 882,-1083.6 882,-106.8 882,-57.9337 509.7832,-27.4753 405.0972,-19.8752"/>
<text text-anchor="middle" x="889" y="-591" font-family="Times,serif" font-size="14.00" fill="#000000">51</text>
</g>
<!-- 10&#45;&#45;8 -->
<g id="edge5" class="edge">
<title>10&#45;&#45;8</title>
<path fill="none" stroke="#000000" d="M323,-1065.2006C323,-1049.8587 323,-1028.122 323,-1012.872"/>
<text text-anchor="middle" x="330" y="-1035" font-family="Times,serif" font-size="14.00" fill="#000000">49</text>
</g>
<!-- 14 -->
<g id="node11" class="node">
<title>14</title>
<ellipse fill="none" stroke="#000000" cx="263" cy="-195.6" rx="27" ry="18"/>
<text text-anchor="middle" x="263" y="-191.4" font-family="Times,serif" font-size="14.00" fill="#000000">14</text>
</g>
<!-- 10&#45;&#45;14 -->
<g id="edge32" class="edge">
<title>10&#45;&#45;14</title>
<path fill="none" stroke="#000000" d="M296.0515,-1080.2726C229.3664,-1071.2904 62,-1043.8599 62,-994.8 62,-994.8 62,-994.8 62,-639.6 62,-579.8619 80,-566.1381 80,-506.4 80,-506.4 80,-506.4 80,-328.8 80,-251.9769 186.7246,-214.8076 237.1687,-201.5299"/>
<text text-anchor="middle" x="69" y="-635.4" font-family="Times,serif" font-size="14.00" fill="#000000">87</text>
</g>
<!-- 2 -->
<g id="node15" class="node">
<title>2</title>
<ellipse fill="none" stroke="#000000" cx="531" cy="-195.6" rx="27" ry="18"/>
<text text-anchor="middle" x="531" y="-191.4" font-family="Times,serif" font-size="14.00" fill="#000000">2</text>
</g>
<!-- 10&#45;&#45;2 -->
<g id="edge49" class="edge">
<title>10&#45;&#45;2</title>
<path fill="none" stroke="#000000" d="M346.0121,-1074.1297C407.9017,-1047.3032 578.1407,-964.2763 651,-835.2 704.0199,-741.2709 687,-703.06 687,-595.2 687,-595.2 687,-595.2 687,-417.6 687,-405.1169 580.0166,-261.0633 543.2411,-211.9137"/>
<text text-anchor="middle" x="695" y="-635.4" font-family="Times,serif" font-size="14.00" fill="#000000">52</text>
</g>
<!-- 12 -->
<g id="node3" class="node">
<title>12</title>
<ellipse fill="none" stroke="#000000" cx="382" cy="-906" rx="27" ry="18"/>
<text text-anchor="middle" x="382" y="-901.8" font-family="Times,serif" font-size="14.00" fill="#000000">12</text>
</g>
<!-- 12&#45;&#45;10 -->
<g id="edge25" class="edge">
<title>12&#45;&#45;10</title>
<path fill="none" stroke="#000000" d="M378.7938,-924.1276C376.9313,-934.3368 374.4702,-947.3071 372,-958.8 366.8127,-982.9345 367.5417,-989.6392 359,-1012.8 351.9383,-1031.9476 341.0095,-1052.6192 333.0451,-1066.653"/>
<text text-anchor="middle" x="376" y="-990.6" font-family="Times,serif" font-size="14.00" fill="#000000">18</text>
</g>
<!-- 7 -->
<g id="node4" class="node">
<title>7</title>
<ellipse fill="none" stroke="#000000" cx="277" cy="-639.6" rx="27" ry="18"/>
<text text-anchor="middle" x="277" y="-635.4" font-family="Times,serif" font-size="14.00" fill="#000000">7</text>
</g>
<!-- 12&#45;&#45;7 -->
<g id="edge2" class="edge">
<title>12&#45;&#45;7</title>
<path fill="none" stroke="#000000" d="M375.8304,-888.3393C372.1906,-878.0525 367.4406,-864.8525 363,-853.2 335.0271,-779.7962 299.3278,-693.2307 284.2443,-656.9565"/>
<text text-anchor="middle" x="342" y="-768.6" font-family="Times,serif" font-size="14.00" fill="#000000">78</text>
</g>
<!-- 9 -->
<g id="node14" class="node">
<title>9</title>
<ellipse fill="none" stroke="#000000" cx="615" cy="-817.2" rx="27" ry="18"/>
<text text-anchor="middle" x="615" y="-813" font-family="Times,serif" font-size="14.00" fill="#000000">9</text>
</g>
<!-- 12&#45;&#45;9 -->
<g id="edge36" class="edge">
<title>12&#45;&#45;9</title>
<path fill="none" stroke="#000000" d="M408.9486,-903.3238C455.029,-898.3611 546.6431,-886.6954 574,-870 587.9684,-861.4754 598.9875,-846.3237 606.0687,-834.4312"/>
<text text-anchor="middle" x="598" y="-857.4" font-family="Times,serif" font-size="14.00" fill="#000000">66</text>
</g>
<!-- 3 -->
<g id="node12" class="node">
<title>3</title>
<ellipse fill="none" stroke="#000000" cx="193" cy="-550.8" rx="27" ry="18"/>
<text text-anchor="middle" x="193" y="-546.6" font-family="Times,serif" font-size="14.00" fill="#000000">3</text>
</g>
<!-- 7&#45;&#45;3 -->
<g id="edge10" class="edge">
<title>7&#45;&#45;3</title>
<path fill="none" stroke="#000000" d="M251.94,-632.4616C236.8419,-626.9251 218.393,-617.7614 207,-603.6 199.1532,-593.8465 195.6762,-580.1134 194.1489,-569.0978"/>
<text text-anchor="middle" x="214" y="-591" font-family="Times,serif" font-size="14.00" fill="#000000">36</text>
</g>
<!-- 11&#45;&#45;12 -->
<g id="edge3" class="edge">
<title>11&#45;&#45;12</title>
<path fill="none" stroke="#000000" d="M560,-480.0279C560,-497.9689 560,-526.2875 560,-550.8 560,-817.2 560,-817.2 560,-817.2 560,-883.8522 458.8293,-900.4771 409.0344,-904.623"/>
<text text-anchor="middle" x="567" y="-679.8" font-family="Times,serif" font-size="14.00" fill="#000000">72</text>
</g>
<!-- 5 -->
<g id="node10" class="node">
<title>5</title>
<ellipse fill="none" stroke="#000000" cx="504" cy="-373.2" rx="27" ry="18"/>
<text text-anchor="middle" x="504" y="-369" font-family="Times,serif" font-size="14.00" fill="#000000">5</text>
</g>
<!-- 11&#45;&#45;5 -->
<g id="edge21" class="edge">
<title>11&#45;&#45;5</title>
<path fill="none" stroke="#000000" d="M549.4668,-445.2974C539.4549,-429.4214 524.4822,-405.6789 514.4859,-389.8277"/>
<text text-anchor="middle" x="544" y="-413.4" font-family="Times,serif" font-size="14.00" fill="#000000">61</text>
</g>
<!-- 15 -->
<g id="node13" class="node">
<title>15</title>
<ellipse fill="none" stroke="#000000" cx="410" cy="-728.4" rx="27" ry="18"/>
<text text-anchor="middle" x="410" y="-724.2" font-family="Times,serif" font-size="14.00" fill="#000000">15</text>
</g>
<!-- 11&#45;&#45;15 -->
<g id="edge15" class="edge">
<title>11&#45;&#45;15</title>
<path fill="none" stroke="#000000" d="M553.0103,-479.554C532.7293,-530.2695 474.3957,-674.53 460,-692.4 452.0818,-702.2292 440.84,-710.6458 431.0209,-716.8637"/>
<text text-anchor="middle" x="517" y="-591" font-family="Times,serif" font-size="14.00" fill="#000000">46</text>
</g>
<!-- 1 -->
<g id="node6" class="node">
<title>1</title>
<ellipse fill="none" stroke="#000000" cx="627" cy="-106.8" rx="27" ry="18"/>
<text text-anchor="middle" x="627" y="-102.6" font-family="Times,serif" font-size="14.00" fill="#000000">1</text>
</g>
<!-- 1&#45;&#45;10 -->
<g id="edge20" class="edge">
<title>1&#45;&#45;10</title>
<path fill="none" stroke="#000000" d="M653.1753,-111.7574C710.8907,-123.4355 844,-154.7923 844,-195.6 844,-506.4 844,-506.4 844,-506.4 844,-777.2421 733.2006,-866.9236 505,-1012.8 453.724,-1045.578 384.8758,-1067.1982 348.307,-1077.1927"/>
<text text-anchor="middle" x="847" y="-591" font-family="Times,serif" font-size="14.00" fill="#000000">76</text>
</g>
<!-- 1&#45;&#45;11 -->
<g id="edge35" class="edge">
<title>1&#45;&#45;11</title>
<path fill="none" stroke="#000000" d="M624.8881,-124.9259C623.6258,-135.1346 621.9004,-148.105 620,-159.6 602.0599,-268.1177 574.2591,-397.2749 563.989,-444.0086"/>
<text text-anchor="middle" x="607" y="-280.2" font-family="Times,serif" font-size="14.00" fill="#000000">42</text>
</g>
<!-- 4 -->
<g id="node7" class="node">
<title>4</title>
<ellipse fill="none" stroke="#000000" cx="418" cy="-284.4" rx="27" ry="18"/>
<text text-anchor="middle" x="418" y="-280.2" font-family="Times,serif" font-size="14.00" fill="#000000">4</text>
</g>
<!-- 1&#45;&#45;4 -->
<g id="edge4" class="edge">
<title>1&#45;&#45;4</title>
<path fill="none" stroke="#000000" d="M601.9388,-113.9719C570.5995,-123.9694 516.7312,-144.6661 481,-177.6 466.4373,-191.0227 440.2626,-240.3233 426.6912,-266.9931"/>
<text text-anchor="middle" x="488" y="-191.4" font-family="Times,serif" font-size="14.00" fill="#000000">45</text>
</g>
<!-- 1&#45;&#45;6 -->
<g id="edge39" class="edge">
<title>1&#45;&#45;6</title>
<path fill="none" stroke="#000000" d="M607.9916,-93.9861C589.5454,-82.0779 560.3981,-64.6266 533,-54 489.4715,-37.117 435.8643,-26.8358 404.4554,-21.7977"/>
<text text-anchor="middle" x="574" y="-58.2" font-family="Times,serif" font-size="14.00" fill="#000000">67</text>
</g>
<!-- 1&#45;&#45;5 -->
<g id="edge18" class="edge">
<title>1&#45;&#45;5</title>
<path fill="none" stroke="#000000" d="M618.8999,-124.3436C596.5776,-172.6905 534.3572,-307.4507 512.0704,-355.7208"/>
<text text-anchor="middle" x="575" y="-235.8" font-family="Times,serif" font-size="14.00" fill="#000000">81</text>
</g>
<!-- 4&#45;&#45;13 -->
<g id="edge34" class="edge">
<title>4&#45;&#45;13</title>
<path fill="none" stroke="#000000" d="M426.8412,-301.619C441.2256,-330.3593 469.6298,-390.2602 485,-444 502.6774,-505.8063 502.8726,-522.7202 508,-586.8 514.8922,-672.935 478.1519,-699.0665 505,-781.2 520.1966,-827.6892 531.7988,-839.4574 570,-870 640.0223,-925.9842 755,-860.7486 755,-950.4 755,-1083.6 755,-1083.6 755,-1083.6 755,-1109.0806 763.9844,-1137.398 770.7227,-1155.0528"/>
<text text-anchor="middle" x="504" y="-724.2" font-family="Times,serif" font-size="14.00" fill="#000000">88</text>
</g>
<!-- 4&#45;&#45;6 -->
<g id="edge42" class="edge">
<title>4&#45;&#45;6</title>
<path fill="none" stroke="#000000" d="M415.2506,-266.0892C407.9256,-217.3046 388.002,-84.6132 380.7157,-36.0866"/>
<text text-anchor="middle" x="406" y="-147" font-family="Times,serif" font-size="14.00" fill="#000000">44</text>
</g>
<!-- 4&#45;&#45;14 -->
<g id="edge9" class="edge">
<title>4&#45;&#45;14</title>
<path fill="none" stroke="#000000" d="M400.1716,-270.6439C385.1378,-259.3842 362.8054,-243.4402 342,-231.6 323.9227,-221.3123 302.3785,-211.6549 286.3582,-204.9377"/>
<text text-anchor="middle" x="375" y="-235.8" font-family="Times,serif" font-size="14.00" fill="#000000">60</text>
</g>
<!-- 4&#45;&#45;15 -->
<g id="edge24" class="edge">
<title>4&#45;&#45;15</title>
<path fill="none" stroke="#000000" d="M417.6732,-302.5401C416.3795,-374.3378 411.6252,-638.2036 410.3285,-710.1669"/>
<text text-anchor="middle" x="422" y="-502.2" font-family="Times,serif" font-size="14.00" fill="#000000">28</text>
</g>
<!-- 4&#45;&#45;2 -->
<g id="edge47" class="edge">
<title>4&#45;&#45;2</title>
<path fill="none" stroke="#000000" d="M434.962,-270.3219C447.994,-259.579 466.4976,-244.4831 483,-231.6 492.6888,-224.0361 503.644,-215.7965 512.6396,-209.1112"/>
<text text-anchor="middle" x="490" y="-235.8" font-family="Times,serif" font-size="14.00" fill="#000000">67</text>
</g>
<!-- 8&#45;&#45;12 -->
<g id="edge22" class="edge">
<title>8&#45;&#45;12</title>
<path fill="none" stroke="#000000" d="M334.0232,-978.1463C340.909,-967.7495 349.9633,-954.0895 358,-942 362.2416,-935.6194 366.9133,-928.6083 370.9989,-922.482"/>
<text text-anchor="middle" x="365" y="-946.2" font-family="Times,serif" font-size="14.00" fill="#000000">53</text>
</g>
<!-- 8&#45;&#45;1 -->
<g id="edge45" class="edge">
<title>8&#45;&#45;1</title>
<path fill="none" stroke="#000000" d="M343.3994,-982.6765C347.1994,-980.6051 351.1777,-978.5574 355,-976.8 480.93,-918.8989 537.5499,-953.7359 648,-870 799.3392,-755.2647 775,-651.9151 775,-462 775,-462 775,-462 775,-195.6 775,-139.5662 696.0295,-118.012 653.4594,-110.4636"/>
<text text-anchor="middle" x="779.5" y="-546.6" font-family="Times,serif" font-size="14.00" fill="#000000">3</text>
</g>
<!-- 6&#45;&#45;10 -->
<g id="edge26" class="edge">
<title>6&#45;&#45;10</title>
<path fill="none" stroke="#000000" d="M350.8152,-18.5618C264.1432,-21.0795 0,-34.6697 0,-106.8 0,-994.8 0,-994.8 0,-994.8 0,-1056.0102 218.387,-1076.5978 296.0168,-1081.9825"/>
<text text-anchor="middle" x="7" y="-546.6" font-family="Times,serif" font-size="14.00" fill="#000000">97</text>
</g>
<!-- 6&#45;&#45;12 -->
<g id="edge8" class="edge">
<title>6&#45;&#45;12</title>
<path fill="none" stroke="#000000" d="M351.1547,-21.3475C284.7252,-30.3768 118,-57.9085 118,-106.8 118,-240 118,-240 118,-240 118,-387.1577 106.0927,-430.7281 157,-568.8 183.4156,-640.4451 326.7158,-832.9147 369.7645,-889.895"/>
<text text-anchor="middle" x="137" y="-457.8" font-family="Times,serif" font-size="14.00" fill="#000000">81</text>
</g>
<!-- 6&#45;&#45;8 -->
<g id="edge6" class="edge">
<title>6&#45;&#45;8</title>
<path fill="none" stroke="#000000" d="M351.0717,-19.3329C271.3401,-24.0063 42,-42.9945 42,-106.8 42,-506.4 42,-506.4 42,-506.4 42,-526.2112 231.757,-957.5894 233,-958.8 250.4813,-975.8247 277.033,-985.113 296.7718,-989.9669"/>
<text text-anchor="middle" x="52" y="-502.2" font-family="Times,serif" font-size="14.00" fill="#000000">36</text>
</g>
<!-- 6&#45;&#45;9 -->
<g id="edge13" class="edge">
<title>6&#45;&#45;9</title>
<path fill="none" stroke="#000000" d="M405.2285,-19.1264C487.0305,-23.2433 725,-40.8845 725,-106.8 725,-506.4 725,-506.4 725,-506.4 725,-636.8326 711.8663,-659.6809 699,-692.4 681.987,-735.6641 648.0221,-779.0998 628.9041,-801.552"/>
<text text-anchor="middle" x="735.5" y="-413.4" font-family="Times,serif" font-size="14.00" fill="#000000">100</text>
</g>
<!-- 5&#45;&#45;4 -->
<g id="edge7" class="edge">
<title>5&#45;&#45;4</title>
<path fill="none" stroke="#000000" d="M489.0199,-357.7322C473.2352,-341.4336 448.5281,-315.922 432.8084,-299.6905"/>
<text text-anchor="middle" x="476" y="-324.6" font-family="Times,serif" font-size="14.00" fill="#000000">15</text>
</g>
<!-- 5&#45;&#45;2 -->
<g id="edge14" class="edge">
<title>5&#45;&#45;2</title>
<path fill="none" stroke="#000000" d="M499.0491,-355.1752C493.9413,-333.7294 487.6717,-296.9807 495,-266.4 499.7559,-246.5536 511.0451,-225.9912 519.7238,-212.1739"/>
<text text-anchor="middle" x="502" y="-280.2" font-family="Times,serif" font-size="14.00" fill="#000000">98</text>
</g>
<!-- 14&#45;&#45;8 -->
<g id="edge28" class="edge">
<title>14&#45;&#45;8</title>
<path fill="none" stroke="#000000" d="M261.2905,-213.7949C253.5309,-296.6449 222,-636.2433 222,-684 222,-906 222,-906 222,-906 222,-946.9762 269.4674,-973.5039 299.32,-986.1356"/>
<text text-anchor="middle" x="236" y="-591" font-family="Times,serif" font-size="14.00" fill="#000000">76</text>
</g>
<!-- 14&#45;&#45;5 -->
<g id="edge41" class="edge">
<title>14&#45;&#45;5</title>
<path fill="none" stroke="#000000" d="M277.1081,-211.4361C297.3349,-233.5548 336.4069,-274.1551 375,-302.4 409.8407,-327.8987 454.8998,-350.5862 481.502,-363.0617"/>
<text text-anchor="middle" x="378.5" y="-280.2" font-family="Times,serif" font-size="14.00" fill="#000000">1</text>
</g>
<!-- 14&#45;&#45;3 -->
<g id="edge43" class="edge">
<title>14&#45;&#45;3</title>
<path fill="none" stroke="#000000" d="M246.2064,-210.1221C229.3928,-226.3624 206,-254.3562 206,-284.4 206,-462 206,-462 206,-462 206,-486.7738 200.9852,-515.0291 197.1848,-532.8846"/>
<text text-anchor="middle" x="213" y="-369" font-family="Times,serif" font-size="14.00" fill="#000000">89</text>
</g>
<!-- 3&#45;&#45;10 -->
<g id="edge27" class="edge">
<title>3&#45;&#45;10</title>
<path fill="none" stroke="#000000" d="M175.799,-565.2398C150.9617,-587.8125 108,-634.0731 108,-684 108,-994.8 108,-994.8 108,-994.8 108,-1035.1848 239.2256,-1066.6676 296.6368,-1078.5088"/>
<text text-anchor="middle" x="115" y="-813" font-family="Times,serif" font-size="14.00" fill="#000000">76</text>
</g>
<!-- 3&#45;&#45;11 -->
<g id="edge50" class="edge">
<title>3&#45;&#45;11</title>
<path fill="none" stroke="#000000" d="M218.7432,-544.9283C246.9782,-538.315 293.53,-526.9011 333,-514.8 354.2088,-508.2976 358.5927,-503.8159 380,-498 421.4703,-486.7335 432.8659,-488.4519 475,-480 494.818,-476.0246 517.1779,-471.2792 533.9888,-467.6591"/>
<text text-anchor="middle" x="387" y="-502.2" font-family="Times,serif" font-size="14.00" fill="#000000">32</text>
</g>
<!-- 3&#45;&#45;6 -->
<g id="edge29" class="edge">
<title>3&#45;&#45;6</title>
<path fill="none" stroke="#000000" d="M188.3608,-532.7897C177.4238,-487.279 152.7775,-364.3158 178,-266.4 206.1056,-157.2919 315.9078,-64.6845 359.7619,-31.2897"/>
<text text-anchor="middle" x="185" y="-280.2" font-family="Times,serif" font-size="14.00" fill="#000000">86</text>
</g>
<!-- 15&#45;&#45;10 -->
<g id="edge11" class="edge">
<title>15&#45;&#45;10</title>
<path fill="none" stroke="#000000" d="M383.6936,-732.6855C364.4908,-737.2272 339.3958,-746.3633 325,-764.4 262.2739,-842.9907 267.6112,-931.8909 287,-1012.8 291.7559,-1032.6464 303.0451,-1053.2088 311.7238,-1067.0261"/>
<text text-anchor="middle" x="283" y="-901.8" font-family="Times,serif" font-size="14.00" fill="#000000">91</text>
</g>
<!-- 15&#45;&#45;7 -->
<g id="edge33" class="edge">
<title>15&#45;&#45;7</title>
<path fill="none" stroke="#000000" d="M390.6607,-715.4877C365.4448,-698.6519 321.5901,-669.3714 296.3627,-652.5279"/>
<text text-anchor="middle" x="363" y="-679.8" font-family="Times,serif" font-size="14.00" fill="#000000">32</text>
</g>
<!-- 15&#45;&#45;8 -->
<g id="edge17" class="edge">
<title>15&#45;&#45;8</title>
<path fill="none" stroke="#000000" d="M401.9033,-745.7626C388.6645,-774.7092 362.2364,-834.9001 346,-888 336.6272,-918.6529 329.6059,-955.3785 325.9161,-976.8002"/>
<text text-anchor="middle" x="365" y="-857.4" font-family="Times,serif" font-size="14.00" fill="#000000">84</text>
</g>
<!-- 15&#45;&#45;6 -->
<g id="edge16" class="edge">
<title>15&#45;&#45;6</title>
<path fill="none" stroke="#000000" d="M404.3734,-710.6426C393.197,-674.3309 368.5416,-588.7661 360,-514.8 338.515,-328.7511 366.3872,-101.1519 375.3781,-36.1233"/>
<text text-anchor="middle" x="360" y="-369" font-family="Times,serif" font-size="14.00" fill="#000000">27</text>
</g>
<!-- 9&#45;&#45;13 -->
<g id="edge30" class="edge">
<title>9&#45;&#45;13</title>
<path fill="none" stroke="#000000" d="M641.7189,-820.8661C677.6103,-827.3676 740.2063,-844.5982 769,-888 825.5307,-973.2107 796.5251,-1106.5672 783.3503,-1154.496"/>
<text text-anchor="middle" x="809" y="-990.6" font-family="Times,serif" font-size="14.00" fill="#000000">87</text>
</g>
<!-- 9&#45;&#45;11 -->
<g id="edge46" class="edge">
<title>9&#45;&#45;11</title>
<path fill="none" stroke="#000000" d="M614.2052,-798.9123C611.7312,-749.6058 602.5372,-610.0789 574,-498 572.4115,-491.7613 570.0457,-485.1391 567.7088,-479.2984"/>
<text text-anchor="middle" x="604.5" y="-635.4" font-family="Times,serif" font-size="14.00" fill="#000000">6</text>
</g>
<!-- 9&#45;&#45;1 -->
<g id="edge12" class="edge">
<title>9&#45;&#45;1</title>
<path fill="none" stroke="#000000" d="M621.4968,-799.4878C623.3127,-793.7348 625.0485,-787.269 626,-781.2 668.7942,-508.2386 632.9999,-435.8884 635,-159.6 635.054,-152.1335 635.8147,-150.2221 635,-142.8 634.3433,-136.8176 633.0903,-130.3748 631.7673,-124.6162"/>
<text text-anchor="middle" x="653" y="-457.8" font-family="Times,serif" font-size="14.00" fill="#000000">62</text>
</g>
<!-- 9&#45;&#45;14 -->
<g id="edge40" class="edge">
<title>9&#45;&#45;14</title>
<path fill="none" stroke="#000000" d="M588.6247,-812.1713C533.2663,-801.1915 407.3215,-773.8505 374,-746.4 288.9228,-676.3127 267.5513,-300.703 263.7107,-213.6319"/>
<text text-anchor="middle" x="300" y="-502.2" font-family="Times,serif" font-size="14.00" fill="#000000">27</text>
</g>
<!-- 9&#45;&#45;15 -->
<g id="edge19" class="edge">
<title>9&#45;&#45;15</title>
<path fill="none" stroke="#000000" d="M593.8156,-805.7566C572.6543,-794.5392 539.0391,-777.2939 509,-764.4 483.9593,-753.6516 454.5303,-743.2197 434.304,-736.3769"/>
<text text-anchor="middle" x="551" y="-768.6" font-family="Times,serif" font-size="14.00" fill="#000000">27</text>
</g>
<!-- 2&#45;&#45;1 -->
<g id="edge31" class="edge">
<title>2&#45;&#45;1</title>
<path fill="none" stroke="#000000" d="M544.1334,-179.6209C553.3946,-168.7496 566.3549,-154.3054 579,-142.8 588.0916,-134.5279 599.0001,-126.2329 608.1189,-119.6937"/>
<text text-anchor="middle" x="586" y="-147" font-family="Times,serif" font-size="14.00" fill="#000000">22</text>
</g>
<!-- 2&#45;&#45;6 -->
<g id="edge38" class="edge">
<title>2&#45;&#45;6</title>
<path fill="none" stroke="#000000" d="M520.7454,-178.6816C503.3814,-150.8222 466.142,-94.3612 426,-54 417.4791,-45.4326 406.8248,-37.2378 397.72,-30.837"/>
<text text-anchor="middle" x="491" y="-102.6" font-family="Times,serif" font-size="14.00" fill="#000000">96</text>
</g>
<!-- 2&#45;&#45;15 -->
<g id="edge37" class="edge">
<title>2&#45;&#45;15</title>
<path fill="none" stroke="#000000" d="M532.3592,-213.7767C534.4979,-243.3844 538.5541,-303.8785 540,-355.2 540.4506,-371.1937 544.0877,-375.731 540,-391.2 533.1045,-417.2943 521.0842,-419.391 510,-444 462.0801,-550.3908 466.3502,-583.2877 425,-692.4 422.6966,-698.4782 420.0113,-705.0602 417.5546,-710.9135"/>
<text text-anchor="middle" x="517" y="-457.8" font-family="Times,serif" font-size="14.00" fill="#000000">33</text>
</g>
</g>
</svg>
