<svg width="700" height="700">
<rect width="100" height="100" x="0" y="0" fill="white" /><rect width="100" height="100" x="0" y="100" fill="white" /><rect width="100" height="100" x="0" y="200" fill="blue" /><rect width="100" height="100" x="0" y="300" fill="blue" /><rect width="100" height="100" x="0" y="400" fill="gray" /><rect width="100" height="100" x="0" y="500" fill="gray" /><rect width="100" height="100" x="0" y="600" fill="gray" /><rect width="100" height="100" x="100" y="0" fill="bisque" /><rect width="100" height="100" x="100" y="100" fill="bisque" /><rect width="100" height="100" x="100" y="200" fill="bisque" /><rect width="100" height="100" x="100" y="300" fill="blue" /><rect width="100" height="100" x="100" y="400" fill="gray" /><rect width="100" height="100" x="100" y="500" fill="gray" /><rect width="100" height="100" x="100" y="600" fill="gray" /><rect width="100" height="100" x="200" y="0" fill="bisque" /><rect width="100" height="100" x="200" y="100" fill="beige" /><rect width="100" height="100" x="200" y="200" fill="bisque" /><rect width="100" height="100" x="200" y="300" fill="blue" /><rect width="100" height="100" x="200" y="400" fill="blue" /><rect width="100" height="100" x="200" y="500" fill="green" /><rect width="100" height="100" x="200" y="600" fill="green" /><rect width="100" height="100" x="300" y="0" fill="black" /><rect width="100" height="100" x="300" y="100" fill="beige" /><rect width="100" height="100" x="300" y="200" fill="beige" /><rect width="100" height="100" x="300" y="300" fill="green" /><rect width="100" height="100" x="300" y="400" fill="green" /><rect width="100" height="100" x="300" y="500" fill="green" /><rect width="100" height="100" x="300" y="600" fill="white" /><rect width="100" height="100" x="400" y="0" fill="black" /><rect width="100" height="100" x="400" y="100" fill="beige" /><rect width="100" height="100" x="400" y="200" fill="red" /><rect width="100" height="100" x="400" y="300" fill="violet" /><rect width="100" height="100" x="400" y="400" fill="black" /><rect width="100" height="100" x="400" y="500" fill="black" /><rect width="100" height="100" x="400" y="600" fill="white" /><rect width="100" height="100" x="500" y="0" fill="black" /><rect width="100" height="100" x="500" y="100" fill="beige" /><rect width="100" height="100" x="500" y="200" fill="red" /><rect width="100" height="100" x="500" y="300" fill="violet" /><rect width="100" height="100" x="500" y="400" fill="violet" /><rect width="100" height="100" x="500" y="500" fill="violet" /><rect width="100" height="100" x="500" y="600" fill="violet" /><rect width="100" height="100" x="600" y="0" fill="black" /><rect width="100" height="100" x="600" y="100" fill="white" /><rect width="100" height="100" x="600" y="200" fill="red" /><rect width="100" height="100" x="600" y="300" fill="red" /><rect width="100" height="100" x="600" y="400" fill="red" /><rect width="100" height="100" x="600" y="500" fill="black" /><rect width="100" height="100" x="600" y="600" fill="black" /></svg>