 
            <svg width="700" height="700">
            <rect x="0" y="0" width="700" height="700" fill="white" />
            <rect width="100" height="100" x="300" y="600" fill="black" /><rect width="100" height="100" x="400" y="100" fill="black" /><rect width="100" height="100" x="400" y="200" fill="black" /><rect width="100" height="100" x="400" y="600" fill="black" /><rect width="100" height="100" x="500" y="600" fill="black" /><rect width="100" height="100" x="600" y="0" fill="black" /><rect width="100" height="100" x="600" y="100" fill="black" /><rect width="100" height="100" x="600" y="600" fill="black" />
            <rect width="90" height="90" x="5" y="5" fill="coral" stroke="coral"  rx="10" ry="10" fill-opacity="0.8" stroke-width="5" /><rect width="90" height="90" x="5" y="105" fill="deepskyblue" stroke="deepskyblue"  rx="10" ry="10" fill-opacity="0.8" stroke-width="5" /><rect width="90" height="90" x="5" y="205" fill="deepskyblue" stroke="deepskyblue"  rx="10" ry="10" fill-opacity="0.8" stroke-width="5" /><rect width="90" height="90" x="5" y="305" fill="deepskyblue" stroke="deepskyblue"  rx="10" ry="10" fill-opacity="0.8" stroke-width="5" /><rect width="90" height="90" x="5" y="405" fill="deepskyblue" stroke="deepskyblue"  rx="10" ry="10" fill-opacity="0.8" stroke-width="5" /><rect width="90" height="90" x="5" y="505" fill="darkorange" stroke="darkorange"  rx="10" ry="10" fill-opacity="0.8" stroke-width="5" /><rect width="90" height="90" x="5" y="605" fill="darkorange" stroke="darkorange"  rx="10" ry="10" fill-opacity="0.8" stroke-width="5" /><rect width="90" height="90" x="105" y="5" fill="coral" stroke="coral"  rx="10" ry="10" fill-opacity="0.8" stroke-width="5" /><rect width="90" height="90" x="105" y="105" fill="deepskyblue" stroke="deepskyblue"  rx="10" ry="10" fill-opacity="0.8" stroke-width="5" /><rect width="90" height="90" x="105" y="205" fill="firebrick" stroke="firebrick"  rx="10" ry="10" fill-opacity="0.8" stroke-width="5" /><rect width="90" height="90" x="105" y="305" fill="firebrick" stroke="firebrick"  rx="10" ry="10" fill-opacity="0.8" stroke-width="5" /><rect width="90" height="90" x="105" y="405" fill="firebrick" stroke="firebrick"  rx="10" ry="10" fill-opacity="0.8" stroke-width="5" /><rect width="90" height="90" x="105" y="505" fill="darkorange" stroke="darkorange"  rx="10" ry="10" fill-opacity="0.8" stroke-width="5" /><rect width="90" height="90" x="105" y="605" fill="darkorange" stroke="darkorange"  rx="10" ry="10" fill-opacity="0.8" stroke-width="5" /><rect width="90" height="90" x="205" y="5" fill="coral" stroke="coral"  rx="10" ry="10" fill-opacity="0.8" stroke-width="5" /><rect width="90" height="90" x="205" y="105" fill="coral" stroke="coral"  rx="10" ry="10" fill-opacity="0.8" stroke-width="5" /><rect width="90" height="90" x="205" y="205" fill="firebrick" stroke="firebrick"  rx="10" ry="10" fill-opacity="0.8" stroke-width="5" /><rect width="90" height="90" x="205" y="305" fill="dodgerblue" stroke="dodgerblue"  rx="10" ry="10" fill-opacity="0.8" stroke-width="5" /><rect width="90" height="90" x="205" y="405" fill="firebrick" stroke="firebrick"  rx="10" ry="10" fill-opacity="0.8" stroke-width="5" /><rect width="90" height="90" x="205" y="505" fill="darkorange" stroke="darkorange"  rx="10" ry="10" fill-opacity="0.8" stroke-width="5" /><rect width="90" height="90" x="205" y="605" fill="darkorange" stroke="darkorange"  rx="10" ry="10" fill-opacity="0.8" stroke-width="5" /><rect width="90" height="90" x="305" y="5" fill="aqua" stroke="aqua"  rx="10" ry="10" fill-opacity="0.8" stroke-width="5" /><rect width="90" height="90" x="305" y="105" fill="coral" stroke="coral"  rx="10" ry="10" fill-opacity="0.8" stroke-width="5" /><rect width="90" height="90" x="305" y="205" fill="dodgerblue" stroke="dodgerblue"  rx="10" ry="10" fill-opacity="0.8" stroke-width="5" /><rect width="90" height="90" x="305" y="305" fill="dodgerblue" stroke="dodgerblue"  rx="10" ry="10" fill-opacity="0.8" stroke-width="5" /><rect width="90" height="90" x="305" y="405" fill="dodgerblue" stroke="dodgerblue"  rx="10" ry="10" fill-opacity="0.8" stroke-width="5" /><rect width="90" height="90" x="305" y="505" fill="dodgerblue" stroke="dodgerblue"  rx="10" ry="10" fill-opacity="0.8" stroke-width="5" /><rect width="90" height="90" x="405" y="5" fill="aqua" stroke="aqua"  rx="10" ry="10" fill-opacity="0.8" stroke-width="5" /><rect width="90" height="90" x="405" y="305" fill="crimson" stroke="crimson"  rx="10" ry="10" fill-opacity="0.8" stroke-width="5" /><rect width="90" height="90" x="405" y="405" fill="crimson" stroke="crimson"  rx="10" ry="10" fill-opacity="0.8" stroke-width="5" /><rect width="90" height="90" x="405" y="505" fill="forestgreen" stroke="forestgreen"  rx="10" ry="10" fill-opacity="0.8" stroke-width="5" /><rect width="90" height="90" x="505" y="5" fill="aqua" stroke="aqua"  rx="10" ry="10" fill-opacity="0.8" stroke-width="5" /><rect width="90" height="90" x="505" y="105" fill="aqua" stroke="aqua"  rx="10" ry="10" fill-opacity="0.8" stroke-width="5" /><rect width="90" height="90" x="505" y="205" fill="aqua" stroke="aqua"  rx="10" ry="10" fill-opacity="0.8" stroke-width="5" /><rect width="90" height="90" x="505" y="305" fill="crimson" stroke="crimson"  rx="10" ry="10" fill-opacity="0.8" stroke-width="5" /><rect width="90" height="90" x="505" y="405" fill="forestgreen" stroke="forestgreen"  rx="10" ry="10" fill-opacity="0.8" stroke-width="5" /><rect width="90" height="90" x="505" y="505" fill="forestgreen" stroke="forestgreen"  rx="10" ry="10" fill-opacity="0.8" stroke-width="5" /><rect width="90" height="90" x="605" y="205" fill="crimson" stroke="crimson"  rx="10" ry="10" fill-opacity="0.8" stroke-width="5" /><rect width="90" height="90" x="605" y="305" fill="crimson" stroke="crimson"  rx="10" ry="10" fill-opacity="0.8" stroke-width="5" /><rect width="90" height="90" x="605" y="405" fill="forestgreen" stroke="forestgreen"  rx="10" ry="10" fill-opacity="0.8" stroke-width="5" /><rect width="90" height="90" x="605" y="505" fill="forestgreen" stroke="forestgreen"  rx="10" ry="10" fill-opacity="0.8" stroke-width="5" />
            
            
            
            </svg>
            