<?xml version="1.0" encoding="UTF-8" standalone="no"?>
<!DOCTYPE svg PUBLIC "-//W3C//DTD SVG 1.1//EN"
 "http://www.w3.org/Graphics/SVG/1.1/DTD/svg11.dtd">
<!-- Generated by graphviz version 2.40.1 (20161225.0304)
 -->
<!-- Title: %0 Pages: 1 -->
<svg width="520pt" height="231pt"
 viewBox="0.00 0.00 520.02 231.49" xmlns="http://www.w3.org/2000/svg" xmlns:xlink="http://www.w3.org/1999/xlink">
<g id="graph0" class="graph" transform="scale(1 1) rotate(0) translate(4 227.4935)">
<title>%0</title>
<polygon fill="#ffffff" stroke="transparent" points="-4,4 -4,-227.4935 516.0178,-227.4935 516.0178,4 -4,4"/>
<!-- start -->
<g id="node1" class="node">
<title>start</title>
</g>
<!-- q5 -->
<g id="node3" class="node">
<title>q5</title>
<ellipse fill="none" stroke="#000000" cx="58.6935" cy="-20.6935" rx="20.8887" ry="20.8887"/>
<text text-anchor="middle" x="58.6935" y="-16.4935" font-family="Times,serif" font-size="14.00" fill="#000000">q5</text>
</g>
<!-- start&#45;&gt;q5 -->
<g id="edge1" class="edge">
<title>start&#45;&gt;q5</title>
<path fill="none" stroke="#000000" d="M1.1535,-20.6935C4.0021,-20.6935 15.7352,-20.6935 27.8701,-20.6935"/>
<polygon fill="#000000" stroke="#000000" points="27.9718,-24.1936 37.9718,-20.6935 27.9717,-17.1936 27.9718,-24.1936"/>
</g>
<!-- q7 -->
<g id="node2" class="node">
<title>q7</title>
<ellipse fill="none" stroke="#000000" cx="487.3244" cy="-96.6935" rx="20.8568" ry="20.8568"/>
<ellipse fill="none" stroke="#000000" cx="487.3244" cy="-96.6935" rx="24.8884" ry="24.8884"/>
<text text-anchor="middle" x="487.3244" y="-92.4935" font-family="Times,serif" font-size="14.00" fill="#000000">q7</text>
</g>
<!-- q4 -->
<g id="node8" class="node">
<title>q4</title>
<ellipse fill="none" stroke="#000000" cx="144.241" cy="-116.6935" rx="20.8887" ry="20.8887"/>
<text text-anchor="middle" x="144.241" y="-112.4935" font-family="Times,serif" font-size="14.00" fill="#000000">q4</text>
</g>
<!-- q5&#45;&gt;q4 -->
<g id="edge6" class="edge">
<title>q5&#45;&gt;q4</title>
<path fill="none" stroke="#000000" d="M72.8199,-36.5459C86.6476,-52.0632 107.8677,-75.8759 123.5879,-93.5169"/>
<polygon fill="#000000" stroke="#000000" points="121.1114,-95.9987 130.3774,-101.136 126.3375,-91.3416 121.1114,-95.9987"/>
<text text-anchor="middle" x="101.4672" y="-74.8935" font-family="Times,serif" font-size="14.00" fill="#000000">ϵ</text>
</g>
<!-- q6 -->
<g id="node9" class="node">
<title>q6</title>
<ellipse fill="none" stroke="#000000" cx="399.7229" cy="-96.6935" rx="20.8887" ry="20.8887"/>
<text text-anchor="middle" x="399.7229" y="-92.4935" font-family="Times,serif" font-size="14.00" fill="#000000">q6</text>
</g>
<!-- q5&#45;&gt;q6 -->
<g id="edge12" class="edge">
<title>q5&#45;&gt;q6</title>
<path fill="none" stroke="#000000" d="M78.5478,-14.8265C95.7619,-10.2601 121.4256,-4.6935 144.241,-4.6935 144.241,-4.6935 144.241,-4.6935 314.1754,-4.6935 349.2935,-4.6935 374.0779,-41.0886 387.635,-68.0962"/>
<polygon fill="#000000" stroke="#000000" points="384.502,-69.658 391.9606,-77.1826 390.8224,-66.6491 384.502,-69.658"/>
<text text-anchor="middle" x="229.7885" y="-8.8935" font-family="Times,serif" font-size="14.00" fill="#000000">ϵ</text>
</g>
<!-- q0 -->
<g id="node4" class="node">
<title>q0</title>
<ellipse fill="none" stroke="#000000" cx="229.7885" cy="-59.6935" rx="20.8887" ry="20.8887"/>
<text text-anchor="middle" x="229.7885" y="-55.4935" font-family="Times,serif" font-size="14.00" fill="#000000">q0</text>
</g>
<!-- q1 -->
<g id="node5" class="node">
<title>q1</title>
<ellipse fill="none" stroke="#000000" cx="314.1754" cy="-96.6935" rx="20.8887" ry="20.8887"/>
<text text-anchor="middle" x="314.1754" y="-92.4935" font-family="Times,serif" font-size="14.00" fill="#000000">q1</text>
</g>
<!-- q0&#45;&gt;q1 -->
<g id="edge2" class="edge">
<title>q0&#45;&gt;q1</title>
<path fill="none" stroke="#000000" d="M248.9372,-68.0893C259.8345,-72.8673 273.6901,-78.9424 285.8269,-84.2639"/>
<polygon fill="#000000" stroke="#000000" points="284.5386,-87.5206 295.1025,-88.3308 287.3496,-81.1098 284.5386,-87.5206"/>
<text text-anchor="middle" x="271.9819" y="-82.8935" font-family="Times,serif" font-size="14.00" fill="#000000">a</text>
</g>
<!-- q1&#45;&gt;q4 -->
<g id="edge7" class="edge">
<title>q1&#45;&gt;q4</title>
<path fill="none" stroke="#000000" d="M293.4337,-99.1346C263.8497,-102.6164 209.3289,-109.0331 175.0252,-113.0704"/>
<polygon fill="#000000" stroke="#000000" points="174.6006,-109.5961 165.0783,-114.2411 175.4188,-116.5481 174.6006,-109.5961"/>
<text text-anchor="middle" x="229.7885" y="-112.8935" font-family="Times,serif" font-size="14.00" fill="#000000">ϵ</text>
</g>
<!-- q1&#45;&gt;q6 -->
<g id="edge10" class="edge">
<title>q1&#45;&gt;q6</title>
<path fill="none" stroke="#000000" d="M334.884,-96.6935C345.0018,-96.6935 357.3878,-96.6935 368.6133,-96.6935"/>
<polygon fill="#000000" stroke="#000000" points="368.9084,-100.1935 378.9084,-96.6935 368.9084,-93.1935 368.9084,-100.1935"/>
<text text-anchor="middle" x="356.9491" y="-100.8935" font-family="Times,serif" font-size="14.00" fill="#000000">ϵ</text>
</g>
<!-- q2 -->
<g id="node6" class="node">
<title>q2</title>
<ellipse fill="none" stroke="#000000" cx="229.7885" cy="-171.6935" rx="20.8887" ry="20.8887"/>
<text text-anchor="middle" x="229.7885" y="-167.4935" font-family="Times,serif" font-size="14.00" fill="#000000">q2</text>
</g>
<!-- q3 -->
<g id="node7" class="node">
<title>q3</title>
<ellipse fill="none" stroke="#000000" cx="314.1754" cy="-171.6935" rx="20.8887" ry="20.8887"/>
<text text-anchor="middle" x="314.1754" y="-167.4935" font-family="Times,serif" font-size="14.00" fill="#000000">q3</text>
</g>
<!-- q2&#45;&gt;q3 -->
<g id="edge3" class="edge">
<title>q2&#45;&gt;q3</title>
<path fill="none" stroke="#000000" d="M250.6482,-171.6935C260.3852,-171.6935 272.1793,-171.6935 282.949,-171.6935"/>
<polygon fill="#000000" stroke="#000000" points="283.2632,-175.1935 293.2632,-171.6935 283.2632,-168.1935 283.2632,-175.1935"/>
<text text-anchor="middle" x="271.9819" y="-175.8935" font-family="Times,serif" font-size="14.00" fill="#000000">b</text>
</g>
<!-- q3&#45;&gt;q4 -->
<g id="edge8" class="edge">
<title>q3&#45;&gt;q4</title>
<path fill="none" stroke="#000000" d="M297.1058,-183.9384C275.7232,-197.6487 238.3419,-216.1662 209.095,-201.6935 185.2544,-189.896 167.7824,-164.6711 157.0196,-144.7486"/>
<polygon fill="#000000" stroke="#000000" points="160.0873,-143.0603 152.4122,-135.7565 153.8574,-146.2523 160.0873,-143.0603"/>
<text text-anchor="middle" x="229.7885" y="-210.8935" font-family="Times,serif" font-size="14.00" fill="#000000">ϵ</text>
</g>
<!-- q3&#45;&gt;q6 -->
<g id="edge11" class="edge">
<title>q3&#45;&gt;q6</title>
<path fill="none" stroke="#000000" d="M329.8661,-157.9373C342.8898,-146.5193 361.6042,-130.1124 376.3855,-117.1535"/>
<polygon fill="#000000" stroke="#000000" points="378.9195,-119.5865 384.1316,-110.3624 374.3049,-114.3229 378.9195,-119.5865"/>
<text text-anchor="middle" x="356.9491" y="-139.8935" font-family="Times,serif" font-size="14.00" fill="#000000">ϵ</text>
</g>
<!-- q4&#45;&gt;q0 -->
<g id="edge4" class="edge">
<title>q4&#45;&gt;q0</title>
<path fill="none" stroke="#000000" d="M159.9896,-103.202C166.8454,-97.5833 175.0922,-91.1565 182.9344,-85.8935 188.9657,-81.8457 195.6673,-77.8343 202.072,-74.2121"/>
<polygon fill="#000000" stroke="#000000" points="204.0586,-77.1139 211.1307,-69.225 200.6826,-70.9818 204.0586,-77.1139"/>
<text text-anchor="middle" x="187.0147" y="-89.8935" font-family="Times,serif" font-size="14.00" fill="#000000">ϵ</text>
</g>
<!-- q4&#45;&gt;q2 -->
<g id="edge5" class="edge">
<title>q4&#45;&gt;q2</title>
<path fill="none" stroke="#000000" d="M161.9665,-128.0895C174.0906,-135.8843 190.3604,-146.3444 203.9255,-155.0657"/>
<polygon fill="#000000" stroke="#000000" points="202.074,-158.0363 212.3784,-160.5002 205.8596,-152.1482 202.074,-158.0363"/>
<text text-anchor="middle" x="187.0147" y="-149.8935" font-family="Times,serif" font-size="14.00" fill="#000000">ϵ</text>
</g>
<!-- q6&#45;&gt;q7 -->
<g id="edge9" class="edge">
<title>q6&#45;&gt;q7</title>
<path fill="none" stroke="#000000" d="M420.4832,-96.6935C429.992,-96.6935 441.5261,-96.6935 452.3174,-96.6935"/>
<polygon fill="#000000" stroke="#000000" points="452.3459,-100.1936 462.3459,-96.6935 452.3458,-93.1936 452.3459,-100.1936"/>
<text text-anchor="middle" x="441.5236" y="-100.8935" font-family="Times,serif" font-size="14.00" fill="#000000">a</text>
</g>
</g>
</svg>
