 
            <svg width="700" height="700">
            <rect x="0" y="0" width="700" height="700" fill="white" />
            <rect width="100" height="100" x="300" y="600" fill="black" /><rect width="100" height="100" x="400" y="100" fill="black" /><rect width="100" height="100" x="400" y="200" fill="black" /><rect width="100" height="100" x="400" y="600" fill="black" /><rect width="100" height="100" x="500" y="600" fill="black" /><rect width="100" height="100" x="600" y="0" fill="black" /><rect width="100" height="100" x="600" y="100" fill="black" /><rect width="100" height="100" x="600" y="600" fill="black" />
            
            <text  x="5" y="15">(0, 0)</text><text  x="5" y="115">(0, 1)</text><text  x="5" y="215">(0, 2)</text><text  x="5" y="315">(0, 3)</text><text  x="5" y="415">(0, 4)</text><text  x="5" y="515">(0, 5)</text><text  x="5" y="615">(0, 6)</text><text  x="105" y="15">(1, 0)</text><text  x="105" y="115">(1, 1)</text><text  x="105" y="215">(1, 2)</text><text  x="105" y="315">(1, 3)</text><text  x="105" y="415">(1, 4)</text><text  x="105" y="515">(1, 5)</text><text  x="105" y="615">(1, 6)</text><text  x="205" y="15">(2, 0)</text><text  x="205" y="115">(2, 1)</text><text  x="205" y="215">(2, 2)</text><text  x="205" y="315">(2, 3)</text><text  x="205" y="415">(2, 4)</text><text  x="205" y="515">(2, 5)</text><text  x="205" y="615">(2, 6)</text><text  x="305" y="15">(3, 0)</text><text  x="305" y="115">(3, 1)</text><text  x="305" y="215">(3, 2)</text><text  x="305" y="315">(3, 3)</text><text  x="305" y="415">(3, 4)</text><text  x="305" y="515">(3, 5)</text><text  x="305" y="615">(3, 6)</text><text  x="405" y="15">(4, 0)</text><text  x="405" y="115">(4, 1)</text><text  x="405" y="215">(4, 2)</text><text  x="405" y="315">(4, 3)</text><text  x="405" y="415">(4, 4)</text><text  x="405" y="515">(4, 5)</text><text  x="405" y="615">(4, 6)</text><text  x="505" y="15">(5, 0)</text><text  x="505" y="115">(5, 1)</text><text  x="505" y="215">(5, 2)</text><text  x="505" y="315">(5, 3)</text><text  x="505" y="415">(5, 4)</text><text  x="505" y="515">(5, 5)</text><text  x="505" y="615">(5, 6)</text><text  x="605" y="15">(6, 0)</text><text  x="605" y="115">(6, 1)</text><text  x="605" y="215">(6, 2)</text><text  x="605" y="315">(6, 3)</text><text  x="605" y="415">(6, 4)</text><text  x="605" y="515">(6, 5)</text><text  x="605" y="615">(6, 6)</text>
            <line x1="100" y1="0" x2="100" y2="700" stroke = "black" stroke-width = "2"/><line x1="200" y1="0" x2="200" y2="700" stroke = "black" stroke-width = "2"/><line x1="300" y1="0" x2="300" y2="700" stroke = "black" stroke-width = "2"/><line x1="400" y1="0" x2="400" y2="700" stroke = "black" stroke-width = "2"/><line x1="500" y1="0" x2="500" y2="700" stroke = "black" stroke-width = "2"/><line x1="600" y1="0" x2="600" y2="700" stroke = "black" stroke-width = "2"/>
            <line x1="0" y1="100" x2="700" y2="100" stroke = "black" stroke-width = "2"/><line x1="0" y1="200" x2="700" y2="200" stroke = "black" stroke-width = "2"/><line x1="0" y1="300" x2="700" y2="300" stroke = "black" stroke-width = "2"/><line x1="0" y1="400" x2="700" y2="400" stroke = "black" stroke-width = "2"/><line x1="0" y1="500" x2="700" y2="500" stroke = "black" stroke-width = "2"/><line x1="0" y1="600" x2="700" y2="600" stroke = "black" stroke-width = "2"/>
            </svg>
            