<svg height="10000" width="9900"><rect width="9900" height="10000" x="0" y="0" fill="white" /><rect width="300" height="1000" x="7100" y="9000" fill="blue" /><rect width="300" height="1000" x="-200" y="8800" fill="blue" /><rect width="300" height="1000" x="-200" y="8800" fill="blue" /><rect width="300" height="1000" x="9100" y="8800" fill="blue" /><rect width="300" height="1000" x="9100" y="8800" fill="blue" /><rect width="500" height="500" x="8900" y="9300" fill="blue" /><rect width="300" height="1000" x="9400" y="-100" fill="blue" /><rect width="1000" height="300" x="6700" y="5700" fill="blue" /><rect width="300" height="1000" x="7900" y="8700" fill="blue" /><rect width="1000" height="300" x="3000" y="9400" fill="blue" /><rect width="300" height="1000" x="8100" y="8600" fill="blue" /><rect width="300" height="1000" x="900" y="8500" fill="blue" /><rect width="300" height="1000" x="1800" y="-400" fill="blue" /><rect width="1000" height="300" x="6700" y="7800" fill="blue" /><rect width="500" height="500" x="7200" y="8100" fill="blue" /><rect width="300" height="1000" x="7600" y="7100" fill="blue" /><rect width="300" height="1000" x="9400" y="8200" fill="blue" /><rect width="1000" height="300" x="8700" y="8900" fill="blue" /><rect width="300" height="1000" x="5600" y="2400" fill="blue" /><rect width="500" height="500" x="100" y="3100" fill="blue" /><circle r="20.000000" cx="2100" cy="300" fill="green" /><circle r="20.000000" cx="5600" cy="3400" fill="green" /><circle r="20.000000" cx="9700" cy="9200" fill="green" /><circle r="20.000000" cx="5200" cy="7500" fill="red" /><circle r="20.000000" cx="6100" cy="5800" fill="red" /><circle r="20.000000" cx="9500" cy="2400" fill="red" /><circle r="20.000000" cx="7700" cy="6000" fill="green" /><circle r="20.000000" cx="5400" cy="1100" fill="red" /><circle r="20.000000" cx="2600" cy="5800" fill="red" /><circle r="20.000000" cx="1600" cy="8300" fill="red" /><circle r="20.000000" cx="8500" cy="400" fill="red" /><circle r="20.000000" cx="3500" cy="9100" fill="red" /><circle r="20.000000" cx="9600" cy="2400" fill="red" /><circle r="20.000000" cx="7900" cy="7400" fill="green" /><circle r="20.000000" cx="100" cy="8800" fill="green" /><circle r="20.000000" cx="5800" cy="3000" fill="green" /><circle r="20.000000" cx="6600" cy="4200" fill="red" /><circle r="20.000000" cx="3600" cy="700" fill="red" /><circle r="20.000000" cx="7200" cy="2300" fill="red" /><circle r="20.000000" cx="4800" cy="6500" fill="red" /><circle r="20.000000" cx="9200" cy="2500" fill="red" /><circle r="20.000000" cx="3500" cy="4700" fill="red" /><circle r="20.000000" cx="5800" cy="2800" fill="green" /><circle r="20.000000" cx="8700" cy="6400" fill="red" /><circle r="20.000000" cx="0" cy="9800" fill="green" /><circle r="20.000000" cx="2600" cy="5700" fill="red" /><circle r="20.000000" cx="6500" cy="5600" fill="red" /><circle r="20.000000" cx="3000" cy="5000" fill="red" /><circle r="20.000000" cx="7500" cy="7300" fill="red" /><circle r="20.000000" cx="1900" cy="600" fill="green" /><circle r="20.000000" cx="8100" cy="3200" fill="red" /><circle r="20.000000" cx="9400" cy="9800" fill="green" /><circle r="20.000000" cx="8000" cy="9700" fill="green" /><circle r="20.000000" cx="9700" cy="900" fill="green" /><circle r="20.000000" cx="9000" cy="3700" fill="red" /><circle r="20.000000" cx="5200" cy="1100" fill="red" /><circle r="20.000000" cx="4100" cy="1000" fill="red" /><circle r="20.000000" cx="6600" cy="3900" fill="red" /><circle r="20.000000" cx="500" cy="6000" fill="red" /><circle r="20.000000" cx="8200" cy="4400" fill="red" /><circle r="20.000000" cx="4000" cy="9700" fill="green" /><circle r="20.000000" cx="5300" cy="1800" fill="red" /><circle r="20.000000" cx="7400" cy="10000" fill="green" /><circle r="20.000000" cx="8200" cy="8900" fill="green" /><circle r="20.000000" cx="1800" cy="4000" fill="red" /><circle r="20.000000" cx="7100" cy="6400" fill="red" /><circle r="20.000000" cx="6100" cy="8200" fill="red" /><circle r="20.000000" cx="3200" cy="2800" fill="red" /><circle r="20.000000" cx="8500" cy="6800" fill="red" /><circle r="20.000000" cx="5400" cy="1100" fill="red" /><circle r="20.000000" cx="9000" cy="6800" fill="red" /><circle r="20.000000" cx="6300" cy="8800" fill="red" /><circle r="20.000000" cx="5100" cy="2200" fill="red" /><circle r="20.000000" cx="200" cy="500" fill="red" /><circle r="20.000000" cx="6200" cy="4200" fill="red" /><circle r="20.000000" cx="1000" cy="5000" fill="red" /><circle r="20.000000" cx="4100" cy="2700" fill="red" /><circle r="20.000000" cx="5600" cy="9200" fill="red" /><circle r="20.000000" cx="9900" cy="3900" fill="red" /><circle r="20.000000" cx="7700" cy="8100" fill="green" /><circle r="20.000000" cx="6600" cy="2400" fill="red" /><circle r="20.000000" cx="4500" cy="9200" fill="red" /><circle r="20.000000" cx="8500" cy="3900" fill="red" /><circle r="20.000000" cx="3100" cy="7900" fill="red" /><circle r="20.000000" cx="5700" cy="100" fill="red" /><circle r="20.000000" cx="100" cy="3600" fill="green" /><circle r="20.000000" cx="6100" cy="1500" fill="red" /><circle r="20.000000" cx="4000" cy="9700" fill="green" /><circle r="20.000000" cx="8400" cy="9600" fill="green" /><circle r="20.000000" cx="6600" cy="8900" fill="red" /><circle r="20.000000" cx="3300" cy="300" fill="red" /><circle r="20.000000" cx="600" cy="9300" fill="red" /><circle r="20.000000" cx="100" cy="1600" fill="red" /><circle r="20.000000" cx="3800" cy="7200" fill="red" /><circle r="20.000000" cx="3700" cy="3400" fill="red" /><circle r="20.000000" cx="8300" cy="2200" fill="red" /><circle r="20.000000" cx="5000" cy="700" fill="red" /><circle r="20.000000" cx="400" cy="4200" fill="red" /><circle r="20.000000" cx="9300" cy="4500" fill="red" /><circle r="20.000000" cx="600" cy="3500" fill="green" /><circle r="20.000000" cx="3700" cy="800" fill="red" /><circle r="20.000000" cx="5800" cy="1500" fill="red" /><circle r="20.000000" cx="2300" cy="4700" fill="red" /><circle r="20.000000" cx="8500" cy="2000" fill="red" /><circle r="20.000000" cx="7800" cy="3400" fill="red" /><circle r="20.000000" cx="7300" cy="8600" fill="green" /><circle r="20.000000" cx="7500" cy="8500" fill="green" /><circle r="20.000000" cx="2000" cy="3700" fill="red" /><circle r="20.000000" cx="9200" cy="800" fill="red" /><circle r="20.000000" cx="1700" cy="9500" fill="red" /><circle r="20.000000" cx="1200" cy="9500" fill="green" /><circle r="20.000000" cx="1100" cy="8900" fill="green" /><circle r="20.000000" cx="2300" cy="3000" fill="red" /><circle r="20.000000" cx="7600" cy="6000" fill="green" /><circle r="20.000000" cx="900" cy="5800" fill="red" /><circle r="20.000000" cx="7400" cy="1500" fill="red" /><circle r="20.000000" cx="2300" cy="4200" fill="red" /><circle r="20.000000" cx="5800" cy="9100" fill="red" /><circle r="20.000000" cx="4200" cy="7600" fill="red" /><circle r="20.000000" cx="2900" cy="8900" fill="red" /></svg>