<svg height="10000" width="9700"><rect width="9700" height="10000" x="0" y="0" fill="white" /><rect width="2200" height="145" x="-2200" y="9655" fill="blue" /><rect width="200" height="1600" x="8000" y="8100" fill="blue" /><rect width="3200" height="100" x="9200" y="2400" fill="blue" /><rect width="600" height="533" x="8800" y="9800" fill="blue" /><rect width="3200" height="100" x="2200" y="1000" fill="blue" /><rect width="2400" height="133" x="2800" y="7367" fill="blue" /><rect width="2800" height="114" x="6900" y="9086" fill="blue" /><rect width="3000" height="107" x="4400" y="9893" fill="blue" /><rect width="600" height="533" x="5900" y="5267" fill="blue" /><rect width="3000" height="107" x="-3000" y="9693" fill="blue" /><circle r="20.000000" cx="2100" cy="300" fill="red" /><circle r="20.000000" cx="5600" cy="3400" fill="red" /><circle r="20.000000" cx="9700" cy="9200" fill="green" /><circle r="20.000000" cx="5200" cy="7500" fill="green" /><circle r="20.000000" cx="6100" cy="5800" fill="green" /><circle r="20.000000" cx="9500" cy="2400" fill="green" /><circle r="20.000000" cx="7700" cy="6000" fill="red" /><circle r="20.000000" cx="5400" cy="1100" fill="green" /><circle r="20.000000" cx="2600" cy="5800" fill="red" /><circle r="20.000000" cx="1600" cy="8300" fill="red" /><circle r="20.000000" cx="8500" cy="400" fill="red" /><circle r="20.000000" cx="3500" cy="9100" fill="red" /><circle r="20.000000" cx="9600" cy="2400" fill="green" /><circle r="20.000000" cx="7900" cy="7400" fill="red" /><circle r="20.000000" cx="100" cy="8800" fill="red" /><circle r="20.000000" cx="5800" cy="3000" fill="red" /><circle r="20.000000" cx="6600" cy="4200" fill="red" /><circle r="20.000000" cx="3600" cy="700" fill="red" /><circle r="20.000000" cx="7200" cy="2300" fill="red" /><circle r="20.000000" cx="4800" cy="6500" fill="red" /><circle r="20.000000" cx="9200" cy="2500" fill="green" /><circle r="20.000000" cx="3500" cy="4700" fill="red" /><circle r="20.000000" cx="5800" cy="2800" fill="red" /><circle r="20.000000" cx="8700" cy="6400" fill="red" /><circle r="20.000000" cx="0" cy="9800" fill="green" /><circle r="20.000000" cx="2600" cy="5700" fill="red" /><circle r="20.000000" cx="6500" cy="5600" fill="green" /><circle r="20.000000" cx="3000" cy="5000" fill="red" /><circle r="20.000000" cx="7500" cy="7300" fill="red" /><circle r="20.000000" cx="1900" cy="600" fill="red" /><circle r="20.000000" cx="8100" cy="3200" fill="red" /><circle r="20.000000" cx="9400" cy="9800" fill="green" /><circle r="20.000000" cx="8000" cy="9700" fill="green" /><circle r="20.000000" cx="9700" cy="900" fill="red" /><circle r="20.000000" cx="9000" cy="3700" fill="red" /><circle r="20.000000" cx="5200" cy="1100" fill="green" /><circle r="20.000000" cx="4100" cy="1000" fill="green" /><circle r="20.000000" cx="6600" cy="3900" fill="red" /><circle r="20.000000" cx="500" cy="6000" fill="red" /><circle r="20.000000" cx="8200" cy="4400" fill="red" /><circle r="20.000000" cx="4000" cy="9700" fill="red" /><circle r="20.000000" cx="5300" cy="1800" fill="red" /><circle r="20.000000" cx="7400" cy="10000" fill="green" /><circle r="20.000000" cx="8200" cy="8900" fill="green" /><circle r="20.000000" cx="1800" cy="4000" fill="red" /><circle r="20.000000" cx="7100" cy="6400" fill="red" /><circle r="20.000000" cx="6100" cy="8200" fill="red" /><circle r="20.000000" cx="3200" cy="2800" fill="red" /><circle r="20.000000" cx="8500" cy="6800" fill="red" /><circle r="20.000000" cx="5400" cy="1100" fill="green" /></svg>