<?xml version="1.0" encoding="UTF-8" standalone="no"?>
<!DOCTYPE svg PUBLIC "-//W3C//DTD SVG 1.1//EN"
 "http://www.w3.org/Graphics/SVG/1.1/DTD/svg11.dtd">
<!-- Generated by graphviz version 2.40.1 (20161225.0304)
 -->
<!-- Title: G Pages: 1 -->
<svg width="568pt" height="294pt"
 viewBox="0.00 0.00 568.00 293.53" xmlns="http://www.w3.org/2000/svg" xmlns:xlink="http://www.w3.org/1999/xlink">
<g id="graph0" class="graph" transform="scale(1 1) rotate(0) translate(4 289.5319)">
<title>G</title>
<polygon fill="#ffffff" stroke="transparent" points="-4,4 -4,-289.5319 564,-289.5319 564,4 -4,4"/>
<!-- A -->
<g id="node1" class="node">
<title>A</title>
<ellipse fill="none" stroke="#000000" cx="27" cy="-206.5319" rx="27" ry="18"/>
<text text-anchor="middle" x="27" y="-202.3319" font-family="Times,serif" font-size="14.00" fill="#000000">A</text>
</g>
<!-- B -->
<g id="node2" class="node">
<title>B</title>
<ellipse fill="none" stroke="#000000" cx="124" cy="-157.5319" rx="27" ry="18"/>
<text text-anchor="middle" x="124" y="-153.3319" font-family="Times,serif" font-size="14.00" fill="#000000">B</text>
</g>
<!-- A&#45;&#45;B -->
<g id="edge1" class="edge">
<title>A&#45;&#45;B</title>
<path fill="none" stroke="#000000" d="M48.5111,-195.6206C55.9494,-191.8509 64.3394,-187.6025 72,-183.7319 81.9249,-178.7173 92.9215,-173.1747 102.2362,-168.4838"/>
<text text-anchor="middle" x="75.5" y="-188.7319" font-family="Times,serif" font-size="14.00" fill="#000000">1</text>
</g>
<!-- C -->
<g id="node3" class="node">
<title>C</title>
<ellipse fill="none" stroke="#000000" cx="221" cy="-37.5319" rx="27" ry="18"/>
<text text-anchor="middle" x="221" y="-33.3319" font-family="Times,serif" font-size="14.00" fill="#000000">C</text>
</g>
<!-- A&#45;&#45;C -->
<g id="edge2" class="edge">
<title>A&#45;&#45;C</title>
<path fill="none" stroke="#000000" d="M37.0147,-189.6118C49.3406,-169.7674 71.7634,-136.6728 97,-113.7319 128.5981,-85.0082 172.5168,-61.0003 198.7184,-47.9999"/>
<text text-anchor="middle" x="124" y="-118.7319" font-family="Times,serif" font-size="14.00" fill="#000000">2</text>
</g>
<!-- D -->
<g id="node4" class="node">
<title>D</title>
<ellipse fill="none" stroke="#000000" cx="221" cy="-267.5319" rx="27" ry="18"/>
<text text-anchor="middle" x="221" y="-263.3319" font-family="Times,serif" font-size="14.00" fill="#000000">D</text>
</g>
<!-- A&#45;&#45;D -->
<g id="edge3" class="edge">
<title>A&#45;&#45;D</title>
<path fill="none" stroke="#000000" d="M51.5702,-214.2576C88.785,-225.9592 159.0461,-248.0515 196.3236,-259.7728"/>
<text text-anchor="middle" x="124" y="-249.7319" font-family="Times,serif" font-size="14.00" fill="#000000">3</text>
</g>
<!-- E -->
<g id="node5" class="node">
<title>E</title>
<ellipse fill="none" stroke="#000000" cx="221" cy="-148.5319" rx="27" ry="18"/>
<text text-anchor="middle" x="221" y="-144.3319" font-family="Times,serif" font-size="14.00" fill="#000000">E</text>
</g>
<!-- A&#45;&#45;E -->
<g id="edge16" class="edge">
<title>A&#45;&#45;E</title>
<path fill="none" stroke="#000000" d="M54.0941,-204.6187C84.9586,-201.5738 136.2566,-193.8387 176,-174.5319 184.4405,-170.4316 193.4498,-165.3718 201.1728,-160.8088"/>
<text text-anchor="middle" x="124" y="-203.7319" font-family="Times,serif" font-size="14.00" fill="#000000">16</text>
</g>
<!-- B&#45;&#45;E -->
<g id="edge4" class="edge">
<title>B&#45;&#45;E</title>
<path fill="none" stroke="#000000" d="M150.7624,-155.0488C164.2209,-153.8001 180.4951,-152.2901 193.9881,-151.0382"/>
<text text-anchor="middle" x="172.5" y="-157.7319" font-family="Times,serif" font-size="14.00" fill="#000000">4</text>
</g>
<!-- F -->
<g id="node6" class="node">
<title>F</title>
<ellipse fill="none" stroke="#000000" cx="325" cy="-186.5319" rx="27" ry="18"/>
<text text-anchor="middle" x="325" y="-182.3319" font-family="Times,serif" font-size="14.00" fill="#000000">F</text>
</g>
<!-- B&#45;&#45;F -->
<g id="edge5" class="edge">
<title>B&#45;&#45;F</title>
<path fill="none" stroke="#000000" d="M147.0442,-167.3393C153.9991,-169.9977 161.7216,-172.6558 169,-174.5319 217.1503,-186.9433 230.2881,-189.6361 280,-188.5319 285.7855,-188.4034 291.9864,-188.1821 297.879,-187.9323"/>
<text text-anchor="middle" x="221" y="-193.7319" font-family="Times,serif" font-size="14.00" fill="#000000">5</text>
</g>
<!-- G -->
<g id="node7" class="node">
<title>G</title>
<ellipse fill="none" stroke="#000000" cx="325" cy="-97.5319" rx="27" ry="18"/>
<text text-anchor="middle" x="325" y="-93.3319" font-family="Times,serif" font-size="14.00" fill="#000000">G</text>
</g>
<!-- B&#45;&#45;G -->
<g id="edge17" class="edge">
<title>B&#45;&#45;G</title>
<path fill="none" stroke="#000000" d="M138.773,-142.155C151.9374,-129.5775 172.4124,-112.626 194,-104.7319 228.3341,-92.1767 271.1087,-92.5344 298.2444,-94.5486"/>
<text text-anchor="middle" x="221" y="-109.7319" font-family="Times,serif" font-size="14.00" fill="#000000">17</text>
</g>
<!-- C&#45;&#45;G -->
<g id="edge6" class="edge">
<title>C&#45;&#45;G</title>
<path fill="none" stroke="#000000" d="M243.5235,-47.7631C254.6909,-53.0649 268.2647,-59.8577 280,-66.7319 288.9858,-71.9955 298.5578,-78.4223 306.5532,-84.0409"/>
<text text-anchor="middle" x="273" y="-71.7319" font-family="Times,serif" font-size="14.00" fill="#000000">6</text>
</g>
<!-- H -->
<g id="node8" class="node">
<title>H</title>
<ellipse fill="none" stroke="#000000" cx="429" cy="-140.5319" rx="27" ry="18"/>
<text text-anchor="middle" x="429" y="-136.3319" font-family="Times,serif" font-size="14.00" fill="#000000">H</text>
</g>
<!-- C&#45;&#45;H -->
<g id="edge7" class="edge">
<title>C&#45;&#45;H</title>
<path fill="none" stroke="#000000" d="M247.9958,-35.4576C275.7045,-34.5216 319.2758,-36.4445 352,-53.7319 381.7375,-69.4415 379.6393,-85.4101 402,-110.5319 406.1929,-115.2425 410.7748,-120.3489 414.9539,-124.9905"/>
<text text-anchor="middle" x="325" y="-58.7319" font-family="Times,serif" font-size="14.00" fill="#000000">7</text>
</g>
<!-- I -->
<g id="node9" class="node">
<title>I</title>
<ellipse fill="none" stroke="#000000" cx="429" cy="-83.5319" rx="27" ry="18"/>
<text text-anchor="middle" x="429" y="-79.3319" font-family="Times,serif" font-size="14.00" fill="#000000">I</text>
</g>
<!-- C&#45;&#45;I -->
<g id="edge18" class="edge">
<title>C&#45;&#45;I</title>
<path fill="none" stroke="#000000" d="M241.1437,-25.0074C267.4053,-10.3771 314.418,9.949 352,-5.7319 381.4644,-18.0257 405.4179,-47.6896 418.4043,-66.6308"/>
<text text-anchor="middle" x="325" y="-10.7319" font-family="Times,serif" font-size="14.00" fill="#000000">18</text>
</g>
<!-- D&#45;&#45;F -->
<g id="edge19" class="edge">
<title>D&#45;&#45;F</title>
<path fill="none" stroke="#000000" d="M238.6422,-253.7914C257.7665,-238.8965 288.1132,-215.2611 307.2713,-200.3398"/>
<text text-anchor="middle" x="273" y="-236.7319" font-family="Times,serif" font-size="14.00" fill="#000000">19</text>
</g>
<!-- D&#45;&#45;I -->
<g id="edge8" class="edge">
<title>D&#45;&#45;I</title>
<path fill="none" stroke="#000000" d="M247.5538,-263.2488C285.4183,-255.5635 353.6893,-235.4995 384,-187.5319 402.0811,-158.918 386.1985,-143.465 402,-113.5319 404.8786,-108.0788 408.9686,-102.8298 413.097,-98.2889"/>
<text text-anchor="middle" x="325" y="-253.7319" font-family="Times,serif" font-size="14.00" fill="#000000">8</text>
</g>
<!-- J -->
<g id="node10" class="node">
<title>J</title>
<ellipse fill="none" stroke="#000000" cx="533" cy="-140.5319" rx="27" ry="18"/>
<text text-anchor="middle" x="533" y="-136.3319" font-family="Times,serif" font-size="14.00" fill="#000000">J</text>
</g>
<!-- D&#45;&#45;J -->
<g id="edge9" class="edge">
<title>D&#45;&#45;J</title>
<path fill="none" stroke="#000000" d="M246.8267,-273.0159C273.7785,-277.6235 316.9194,-281.8245 352,-270.5319 423.0775,-247.6518 489.8593,-185.3819 518.4238,-156.1191"/>
<text text-anchor="middle" x="377" y="-266.7319" font-family="Times,serif" font-size="14.00" fill="#000000">9</text>
</g>
<!-- E&#45;&#45;F -->
<g id="edge10" class="edge">
<title>E&#45;&#45;F</title>
<path fill="none" stroke="#000000" d="M244.8597,-157.2499C261.7711,-163.429 284.3649,-171.6844 301.2513,-177.8545"/>
<text text-anchor="middle" x="273" y="-174.7319" font-family="Times,serif" font-size="14.00" fill="#000000">10</text>
</g>
<!-- E&#45;&#45;G -->
<g id="edge11" class="edge">
<title>E&#45;&#45;G</title>
<path fill="none" stroke="#000000" d="M242.8018,-137.8406C260.5515,-129.1364 285.4849,-116.9095 303.2269,-108.2091"/>
<text text-anchor="middle" x="273" y="-130.7319" font-family="Times,serif" font-size="14.00" fill="#000000">11</text>
</g>
<!-- F&#45;&#45;H -->
<g id="edge12" class="edge">
<title>F&#45;&#45;H</title>
<path fill="none" stroke="#000000" d="M347.5665,-176.5506C365.0107,-168.8348 389.0444,-158.2046 406.4776,-150.4937"/>
<text text-anchor="middle" x="377" y="-170.7319" font-family="Times,serif" font-size="14.00" fill="#000000">12</text>
</g>
<!-- G&#45;&#45;I -->
<g id="edge13" class="edge">
<title>G&#45;&#45;I</title>
<path fill="none" stroke="#000000" d="M351.5127,-93.9629C367.0393,-91.8728 386.5937,-89.2404 402.1741,-87.1431"/>
<text text-anchor="middle" x="377" y="-95.7319" font-family="Times,serif" font-size="14.00" fill="#000000">13</text>
</g>
<!-- H&#45;&#45;J -->
<g id="edge14" class="edge">
<title>H&#45;&#45;J</title>
<path fill="none" stroke="#000000" d="M456.0533,-140.5319C471.3403,-140.5319 490.397,-140.5319 505.7209,-140.5319"/>
<text text-anchor="middle" x="481" y="-144.7319" font-family="Times,serif" font-size="14.00" fill="#000000">14</text>
</g>
<!-- I&#45;&#45;J -->
<g id="edge15" class="edge">
<title>I&#45;&#45;J</title>
<path fill="none" stroke="#000000" d="M450.046,-95.0667C468.0895,-104.9559 493.9509,-119.13 511.9853,-129.0143"/>
<text text-anchor="middle" x="481" y="-119.7319" font-family="Times,serif" font-size="14.00" fill="#000000">15</text>
</g>
</g>
</svg>
