<svg xmlns="http://www.w3.org/2000/svg" viewbox="-21 -22 140 228">
	<line x1="0" y1="186" x2="0" y2="86" stroke="black" />
	<line x1="0" y1="86" x2="0" y2="86" stroke="black" />
	<line x1="0" y1="86" x2="49" y2="0" stroke="black" />
	<line x1="49" y1="0" x2="49" y2="0" stroke="black" />
	<line x1="49" y1="0" x2="99" y2="87" stroke="black" />
	<line x1="99" y1="87" x2="99" y2="87" stroke="black" />
	<line x1="99" y1="87" x2="-1" y2="88" stroke="black" />
	<line x1="-1" y1="88" x2="-1" y2="88" stroke="black" />
	<line x1="-1" y1="88" x2="-1" y2="88" stroke="black" />
	<line x1="-1" y1="88" x2="99" y2="88" stroke="black" />
	<line x1="99" y1="88" x2="99" y2="88" stroke="black" />
	<line x1="99" y1="88" x2="99" y2="188" stroke="black" />
	<line x1="99" y1="188" x2="99" y2="188" stroke="black" />
	<line x1="99" y1="188" x2="-1" y2="188" stroke="black" />
	<line x1="-1" y1="188" x2="-1" y2="188" stroke="black" />
	<line x1="-1" y1="188" x2="-1" y2="188" stroke="black" />
</svg>
