<svg xmlns="http://www.w3.org/2000/svg" viewbox="-20 -20 140 226.6">
	<line x1="0" y1="186.6" x2="0" y2="86.6" stroke="black" />
	<line x1="0" y1="86.6" x2="0" y2="86.6" stroke="black" />
	<line x1="0" y1="86.6" x2="49.99" y2="0" stroke="black" />
	<line x1="49.99" y1="0" x2="49.99" y2="0" stroke="black" />
	<line x1="49.99" y1="0" x2="100" y2="86.6" stroke="black" />
	<line x1="100" y1="86.6" x2="100" y2="86.6" stroke="black" />
	<line x1="100" y1="86.6" x2="0" y2="86.6" stroke="black" />
	<line x1="0" y1="86.6" x2="0" y2="86.6" stroke="black" />
	<line x1="0" y1="86.6" x2="0" y2="86.6" stroke="black" />
	<line x1="0" y1="86.6" x2="100" y2="86.6" stroke="black" />
	<line x1="100" y1="86.6" x2="100" y2="86.6" stroke="black" />
	<line x1="100" y1="86.6" x2="100" y2="186.6" stroke="black" />
	<line x1="100" y1="186.6" x2="100" y2="186.6" stroke="black" />
	<line x1="100" y1="186.6" x2="0" y2="186.6" stroke="black" />
	<line x1="0" y1="186.6" x2="0" y2="186.6" stroke="black" />
	<line x1="0" y1="186.6" x2="0" y2="186.6" stroke="black" />
</svg>
