<svg xmlns="http://www.w3.org/2000/svg" viewbox="-20 -206.603 140 226.603">
	<line x1="0" y1="0" x2="6.12323e-15" y2="-100" stroke="black" />
	<line x1="6.12323e-15" y1="-100" x2="6.12323e-15" y2="-100" stroke="black" />
	<line x1="6.12323e-15" y1="-100" x2="50" y2="-186.603" stroke="black" />
	<line x1="50" y1="-186.603" x2="50" y2="-186.603" stroke="black" />
	<line x1="50" y1="-186.603" x2="100" y2="-100" stroke="black" />
	<line x1="100" y1="-100" x2="100" y2="-100" stroke="black" />
	<line x1="100" y1="-100" x2="2.84217e-14" y2="-100" stroke="black" />
	<line x1="2.84217e-14" y1="-100" x2="2.84217e-14" y2="-100" stroke="black" />
	<line x1="2.84217e-14" y1="-100" x2="2.84217e-14" y2="-100" stroke="black" />
	<line x1="2.84217e-14" y1="-100" x2="100" y2="-100" stroke="black" />
	<line x1="100" y1="-100" x2="100" y2="-100" stroke="black" />
	<line x1="100" y1="-100" x2="100" y2="0" stroke="black" />
	<line x1="100" y1="0" x2="100" y2="0" stroke="black" />
	<line x1="100" y1="0" x2="5.68434e-14" y2="3.67394e-14" stroke="black" />
	<line x1="5.68434e-14" y1="3.67394e-14" x2="5.68434e-14" y2="3.67394e-14" stroke="black" />
	<line x1="5.68434e-14" y1="3.67394e-14" x2="5.68434e-14" y2="3.67394e-14" stroke="black" />
</svg>
