<?xml version="1.0" encoding="UTF-8" standalone="no"?>
<!DOCTYPE svg PUBLIC "-//W3C//DTD SVG 1.1//EN"
 "http://www.w3.org/Graphics/SVG/1.1/DTD/svg11.dtd">
<!-- Generated by graphviz version 2.40.1 (20161225.0304)
 -->
<!-- Title: %0 Pages: 1 -->
<svg width="782pt" height="278pt"
 viewBox="0.00 0.00 782.00 278.00" xmlns="http://www.w3.org/2000/svg" xmlns:xlink="http://www.w3.org/1999/xlink">
<g id="graph0" class="graph" transform="scale(1 1) rotate(0) translate(4 274)">
<title>%0</title>
<polygon fill="#ffffff" stroke="transparent" points="-4,4 -4,-274 778,-274 778,4 -4,4"/>
<!-- B -->
<g id="node1" class="node">
<title>B</title>
<ellipse fill="none" stroke="#000000" cx="27" cy="-206" rx="27" ry="18"/>
<text text-anchor="middle" x="27" y="-201.8" font-family="Times,serif" font-size="14.00" fill="#000000">B</text>
</g>
<!-- C -->
<g id="node2" class="node">
<title>C</title>
<ellipse fill="none" stroke="#000000" cx="117" cy="-160" rx="27" ry="18"/>
<text text-anchor="middle" x="117" y="-155.8" font-family="Times,serif" font-size="14.00" fill="#000000">C</text>
</g>
<!-- B&#45;&gt;C -->
<g id="edge1" class="edge">
<title>B&#45;&gt;C</title>
<path fill="none" stroke="#000000" d="M48.7865,-194.8647C60.0625,-189.1014 74.0163,-181.9694 86.3599,-175.6605"/>
<polygon fill="#000000" stroke="#000000" points="88.1027,-178.7005 95.4141,-171.0328 84.9169,-172.4674 88.1027,-178.7005"/>
</g>
<!-- D -->
<g id="node8" class="node">
<title>D</title>
<ellipse fill="none" stroke="#000000" cx="297" cy="-252" rx="27" ry="18"/>
<text text-anchor="middle" x="297" y="-247.8" font-family="Times,serif" font-size="14.00" fill="#000000">D</text>
</g>
<!-- B&#45;&gt;D -->
<g id="edge11" class="edge">
<title>B&#45;&gt;D</title>
<path fill="none" stroke="#000000" d="M52.6694,-212.1026C64.0675,-214.7093 77.6677,-217.6791 90,-220 149.4658,-231.1913 219.0827,-241.3538 260.5305,-247.0967"/>
<polygon fill="#000000" stroke="#000000" points="260.0541,-250.564 270.4378,-248.4595 261.0081,-243.6293 260.0541,-250.564"/>
</g>
<!-- F -->
<g id="node5" class="node">
<title>F</title>
<ellipse fill="none" stroke="#000000" cx="207" cy="-95" rx="27" ry="18"/>
<text text-anchor="middle" x="207" y="-90.8" font-family="Times,serif" font-size="14.00" fill="#000000">F</text>
</g>
<!-- C&#45;&gt;F -->
<g id="edge12" class="edge">
<title>C&#45;&gt;F</title>
<path fill="none" stroke="#000000" d="M135.6481,-146.532C148.5247,-137.2321 165.8462,-124.7222 180.1979,-114.3571"/>
<polygon fill="#000000" stroke="#000000" points="182.6262,-116.9207 188.6838,-108.2284 178.5277,-111.246 182.6262,-116.9207"/>
</g>
<!-- C&#45;&gt;D -->
<g id="edge2" class="edge">
<title>C&#45;&gt;D</title>
<path fill="none" stroke="#000000" d="M138.7122,-171.0973C170.5568,-187.3735 230.0717,-217.7922 266.3564,-236.3377"/>
<polygon fill="#000000" stroke="#000000" points="264.9937,-239.5719 275.491,-241.0065 268.1795,-233.3388 264.9937,-239.5719"/>
</g>
<!-- E -->
<g id="node3" class="node">
<title>E</title>
<ellipse fill="none" stroke="#000000" cx="657" cy="-168" rx="27" ry="18"/>
<text text-anchor="middle" x="657" y="-163.8" font-family="Times,serif" font-size="14.00" fill="#000000">E</text>
</g>
<!-- E&#45;&gt;F -->
<g id="edge4" class="edge">
<title>E&#45;&gt;F</title>
<path fill="none" stroke="#000000" d="M630.4366,-164.133C606.6722,-160.5673 570.9197,-154.941 540,-149 523.9041,-145.9073 520.1071,-144.0337 504,-141 410.7888,-123.4441 300.1976,-107.6261 243.9095,-99.9302"/>
<polygon fill="#000000" stroke="#000000" points="244.1026,-96.4243 233.7222,-98.5451 243.1595,-103.3605 244.1026,-96.4243"/>
</g>
<!-- G -->
<g id="node4" class="node">
<title>G</title>
<ellipse fill="none" stroke="#000000" cx="297" cy="-76" rx="27" ry="18"/>
<text text-anchor="middle" x="297" y="-71.8" font-family="Times,serif" font-size="14.00" fill="#000000">G</text>
</g>
<!-- H -->
<g id="node6" class="node">
<title>H</title>
<ellipse fill="none" stroke="#000000" cx="387" cy="-206" rx="27" ry="18"/>
<text text-anchor="middle" x="387" y="-201.8" font-family="Times,serif" font-size="14.00" fill="#000000">H</text>
</g>
<!-- G&#45;&gt;H -->
<g id="edge6" class="edge">
<title>G&#45;&gt;H</title>
<path fill="none" stroke="#000000" d="M308.3986,-92.4646C323.8672,-114.8082 351.643,-154.9288 369.6931,-181.0011"/>
<polygon fill="#000000" stroke="#000000" points="366.8399,-183.0288 375.4097,-189.2585 372.5952,-179.0443 366.8399,-183.0288"/>
</g>
<!-- L -->
<g id="node11" class="node">
<title>L</title>
<ellipse fill="none" stroke="#000000" cx="747" cy="-53" rx="27" ry="18"/>
<text text-anchor="middle" x="747" y="-48.8" font-family="Times,serif" font-size="14.00" fill="#000000">L</text>
</g>
<!-- G&#45;&gt;L -->
<g id="edge15" class="edge">
<title>G&#45;&gt;L</title>
<path fill="none" stroke="#000000" d="M324.1403,-76C359.376,-76 422.7813,-76 477,-76 477,-76 477,-76 567,-76 617.3222,-76 674.9244,-67.0457 711.1304,-60.3112"/>
<polygon fill="#000000" stroke="#000000" points="712.0312,-63.7026 721.1992,-58.3925 710.7208,-56.8263 712.0312,-63.7026"/>
</g>
<!-- F&#45;&gt;G -->
<g id="edge5" class="edge">
<title>F&#45;&gt;G</title>
<path fill="none" stroke="#000000" d="M233.0317,-89.5044C241.8005,-87.6532 251.7454,-85.5537 261.1362,-83.5713"/>
<polygon fill="#000000" stroke="#000000" points="261.9654,-86.9734 271.0268,-81.4832 260.5194,-80.1244 261.9654,-86.9734"/>
</g>
<!-- K -->
<g id="node10" class="node">
<title>K</title>
<ellipse fill="none" stroke="#000000" cx="657" cy="-30" rx="27" ry="18"/>
<text text-anchor="middle" x="657" y="-25.8" font-family="Times,serif" font-size="14.00" fill="#000000">K</text>
</g>
<!-- F&#45;&gt;K -->
<g id="edge14" class="edge">
<title>F&#45;&gt;K</title>
<path fill="none" stroke="#000000" d="M222.4043,-80.1563C251.8281,-53.4375 319.1562,0 387,0 387,0 387,0 477,0 527.8933,0 585.7929,-11.8131 621.8655,-20.6136"/>
<polygon fill="#000000" stroke="#000000" points="621.3319,-24.0878 631.8822,-23.1174 623.0295,-17.2967 621.3319,-24.0878"/>
</g>
<!-- H&#45;&gt;B -->
<g id="edge16" class="edge">
<title>H&#45;&gt;B</title>
<path fill="none" stroke="#000000" d="M359.6275,-206C295.7257,-206 136.6514,-206 64.1116,-206"/>
<polygon fill="#000000" stroke="#000000" points="64.0585,-202.5001 54.0585,-206 64.0585,-209.5001 64.0585,-202.5001"/>
</g>
<!-- I -->
<g id="node7" class="node">
<title>I</title>
<ellipse fill="none" stroke="#000000" cx="477" cy="-168" rx="27" ry="18"/>
<text text-anchor="middle" x="477" y="-163.8" font-family="Times,serif" font-size="14.00" fill="#000000">I</text>
</g>
<!-- H&#45;&gt;I -->
<g id="edge7" class="edge">
<title>H&#45;&gt;I</title>
<path fill="none" stroke="#000000" d="M410.1772,-196.2141C420.6752,-191.7816 433.2638,-186.4664 444.67,-181.6504"/>
<polygon fill="#000000" stroke="#000000" points="446.0502,-184.8669 453.9013,-177.7528 443.3274,-178.4182 446.0502,-184.8669"/>
</g>
<!-- I&#45;&gt;C -->
<g id="edge17" class="edge">
<title>I&#45;&gt;C</title>
<path fill="none" stroke="#000000" d="M449.6275,-167.3917C385.7257,-165.9717 226.6514,-162.4367 154.1116,-160.8247"/>
<polygon fill="#000000" stroke="#000000" points="154.1338,-157.3244 144.0585,-160.6013 153.9782,-164.3227 154.1338,-157.3244"/>
</g>
<!-- J -->
<g id="node9" class="node">
<title>J</title>
<ellipse fill="none" stroke="#000000" cx="567" cy="-122" rx="27" ry="18"/>
<text text-anchor="middle" x="567" y="-117.8" font-family="Times,serif" font-size="14.00" fill="#000000">J</text>
</g>
<!-- I&#45;&gt;J -->
<g id="edge8" class="edge">
<title>I&#45;&gt;J</title>
<path fill="none" stroke="#000000" d="M498.7865,-156.8647C510.0625,-151.1014 524.0163,-143.9694 536.3599,-137.6605"/>
<polygon fill="#000000" stroke="#000000" points="538.1027,-140.7005 545.4141,-133.0328 534.9169,-134.4674 538.1027,-140.7005"/>
</g>
<!-- D&#45;&gt;E -->
<g id="edge3" class="edge">
<title>D&#45;&gt;E</title>
<path fill="none" stroke="#000000" d="M323.6284,-248.4529C347.4355,-245.0974 383.2142,-239.5997 414,-233 489.1871,-216.8817 575.9049,-192.1855 622.7215,-178.3368"/>
<polygon fill="#000000" stroke="#000000" points="623.7739,-181.6754 632.3622,-175.4712 621.7795,-174.9655 623.7739,-181.6754"/>
</g>
<!-- D&#45;&gt;H -->
<g id="edge13" class="edge">
<title>D&#45;&gt;H</title>
<path fill="none" stroke="#000000" d="M318.7865,-240.8647C330.0625,-235.1014 344.0163,-227.9694 356.3599,-221.6605"/>
<polygon fill="#000000" stroke="#000000" points="358.1027,-224.7005 365.4141,-217.0328 354.9169,-218.4674 358.1027,-224.7005"/>
</g>
<!-- J&#45;&gt;E -->
<g id="edge18" class="edge">
<title>J&#45;&gt;E</title>
<path fill="none" stroke="#000000" d="M588.7865,-133.1353C600.0625,-138.8986 614.0163,-146.0306 626.3599,-152.3395"/>
<polygon fill="#000000" stroke="#000000" points="624.9169,-155.5326 635.4141,-156.9672 628.1027,-149.2995 624.9169,-155.5326"/>
</g>
<!-- J&#45;&gt;K -->
<g id="edge9" class="edge">
<title>J&#45;&gt;K</title>
<path fill="none" stroke="#000000" d="M581.8617,-106.8081C596.3225,-92.0259 618.4681,-69.3882 634.9761,-52.5133"/>
<polygon fill="#000000" stroke="#000000" points="637.6252,-54.8104 642.1163,-45.2145 632.6214,-49.9153 637.6252,-54.8104"/>
</g>
<!-- K&#45;&gt;G -->
<g id="edge19" class="edge">
<title>K&#45;&gt;G</title>
<path fill="none" stroke="#000000" d="M629.8363,-31.909C577.4181,-35.8175 458.7649,-45.7573 360,-62 350.923,-63.4928 341.1884,-65.468 332.1515,-67.4627"/>
<polygon fill="#000000" stroke="#000000" points="331.2925,-64.0686 322.3173,-69.6984 332.8444,-70.8945 331.2925,-64.0686"/>
</g>
<!-- K&#45;&gt;L -->
<g id="edge10" class="edge">
<title>K&#45;&gt;L</title>
<path fill="none" stroke="#000000" d="M682.5497,-36.5294C691.6523,-38.8556 702.0697,-41.5178 711.8371,-44.0139"/>
<polygon fill="#000000" stroke="#000000" points="711.1427,-47.4489 721.698,-46.5339 712.876,-40.6668 711.1427,-47.4489"/>
</g>
</g>
</svg>
