<?xml version="1.0" encoding="UTF-8" standalone="no"?>
<!DOCTYPE svg PUBLIC "-//W3C//DTD SVG 1.1//EN"
 "http://www.w3.org/Graphics/SVG/1.1/DTD/svg11.dtd">
<!-- Generated by graphviz version 2.40.1 (20161225.0304)
 -->
<!-- Title: G Pages: 1 -->
<svg width="478pt" height="178pt"
 viewBox="0.00 0.00 478.00 178.09" xmlns="http://www.w3.org/2000/svg" xmlns:xlink="http://www.w3.org/1999/xlink">
<g id="graph0" class="graph" transform="scale(1 1) rotate(0) translate(4 174.0927)">
<title>G</title>
<polygon fill="#ffffff" stroke="transparent" points="-4,4 -4,-174.0927 474,-174.0927 474,4 -4,4"/>
<!-- 1 -->
<g id="node1" class="node">
<title>1</title>
<ellipse fill="none" stroke="#000000" cx="27" cy="-93.0927" rx="27" ry="18"/>
<text text-anchor="middle" x="27" y="-88.8927" font-family="Times,serif" font-size="14.00" fill="#000000">1</text>
</g>
<!-- 2 -->
<g id="node2" class="node">
<title>2</title>
<ellipse fill="none" stroke="#000000" cx="131" cy="-34.0927" rx="27" ry="18"/>
<text text-anchor="middle" x="131" y="-29.8927" font-family="Times,serif" font-size="14.00" fill="#000000">2</text>
</g>
<!-- 1&#45;&#45;2 -->
<g id="edge1" class="edge">
<title>1&#45;&#45;2</title>
<path fill="none" stroke="#000000" d="M48.046,-81.1532C66.2082,-70.8496 92.2915,-56.0523 110.3403,-45.8131"/>
<text text-anchor="middle" x="79" y="-71.2927" font-family="Times,serif" font-size="14.00" fill="#000000">23</text>
</g>
<!-- 3 -->
<g id="node3" class="node">
<title>3</title>
<ellipse fill="none" stroke="#000000" cx="131" cy="-93.0927" rx="27" ry="18"/>
<text text-anchor="middle" x="131" y="-88.8927" font-family="Times,serif" font-size="14.00" fill="#000000">3</text>
</g>
<!-- 1&#45;&#45;3 -->
<g id="edge2" class="edge">
<title>1&#45;&#45;3</title>
<path fill="none" stroke="#000000" d="M54.0533,-93.0927C69.3403,-93.0927 88.397,-93.0927 103.7209,-93.0927"/>
<text text-anchor="middle" x="79" y="-97.2927" font-family="Times,serif" font-size="14.00" fill="#000000">25</text>
</g>
<!-- 4 -->
<g id="node4" class="node">
<title>4</title>
<ellipse fill="none" stroke="#000000" cx="235" cy="-152.0927" rx="27" ry="18"/>
<text text-anchor="middle" x="235" y="-147.8927" font-family="Times,serif" font-size="14.00" fill="#000000">4</text>
</g>
<!-- 1&#45;&#45;4 -->
<g id="edge3" class="edge">
<title>1&#45;&#45;4</title>
<path fill="none" stroke="#000000" d="M48.595,-104.2793C55.894,-107.7594 64.1777,-111.3886 72,-114.0927 118.9614,-130.3269 175.913,-141.8281 208.5552,-147.676"/>
<text text-anchor="middle" x="131" y="-141.2927" font-family="Times,serif" font-size="14.00" fill="#000000">24</text>
</g>
<!-- 5 -->
<g id="node5" class="node">
<title>5</title>
<ellipse fill="none" stroke="#000000" cx="235" cy="-48.0927" rx="27" ry="18"/>
<text text-anchor="middle" x="235" y="-43.8927" font-family="Times,serif" font-size="14.00" fill="#000000">5</text>
</g>
<!-- 2&#45;&#45;5 -->
<g id="edge4" class="edge">
<title>2&#45;&#45;5</title>
<path fill="none" stroke="#000000" d="M158.145,-33.1919C168.1997,-33.2391 179.6653,-33.7442 190,-35.2927 196.7475,-36.3037 203.9119,-38.0294 210.4932,-39.8918"/>
<text text-anchor="middle" x="183" y="-39.2927" font-family="Times,serif" font-size="14.00" fill="#000000">5</text>
</g>
<!-- 6 -->
<g id="node6" class="node">
<title>6</title>
<ellipse fill="none" stroke="#000000" cx="339" cy="-60.0927" rx="27" ry="18"/>
<text text-anchor="middle" x="339" y="-55.8927" font-family="Times,serif" font-size="14.00" fill="#000000">6</text>
</g>
<!-- 2&#45;&#45;6 -->
<g id="edge5" class="edge">
<title>2&#45;&#45;6</title>
<path fill="none" stroke="#000000" d="M152.1878,-22.3499C178.3558,-9.4198 224.0604,8.009 262,-4.2927 286.4987,-12.2362 309.7326,-31.2192 324.1459,-44.8376"/>
<text text-anchor="middle" x="235" y="-8.2927" font-family="Times,serif" font-size="14.00" fill="#000000">15</text>
</g>
<!-- 3&#45;&#45;5 -->
<g id="edge6" class="edge">
<title>3&#45;&#45;5</title>
<path fill="none" stroke="#000000" d="M153.8232,-83.2172C171.1633,-75.7144 194.9031,-65.4423 212.23,-57.9451"/>
<text text-anchor="middle" x="183" y="-77.2927" font-family="Times,serif" font-size="14.00" fill="#000000">20</text>
</g>
<!-- 7 -->
<g id="node7" class="node">
<title>7</title>
<ellipse fill="none" stroke="#000000" cx="443" cy="-90.0927" rx="27" ry="18"/>
<text text-anchor="middle" x="443" y="-85.8927" font-family="Times,serif" font-size="14.00" fill="#000000">7</text>
</g>
<!-- 3&#45;&#45;7 -->
<g id="edge7" class="edge">
<title>3&#45;&#45;7</title>
<path fill="none" stroke="#000000" d="M158.2951,-93.3565C206.6241,-93.7419 310.4154,-94.2022 398,-92.0927 403.7853,-91.9533 409.986,-91.7275 415.8786,-91.4767"/>
<text text-anchor="middle" x="287" y="-97.2927" font-family="Times,serif" font-size="14.00" fill="#000000">25</text>
</g>
<!-- 4&#45;&#45;6 -->
<g id="edge8" class="edge">
<title>4&#45;&#45;6</title>
<path fill="none" stroke="#000000" d="M259.3239,-143.8556C270.6633,-139.2275 283.8586,-132.644 294,-124.0927 309.5759,-110.9589 322.3484,-91.2436 330.255,-77.1686"/>
<text text-anchor="middle" x="287" y="-137.2927" font-family="Times,serif" font-size="14.00" fill="#000000">12</text>
</g>
<!-- 4&#45;&#45;7 -->
<g id="edge9" class="edge">
<title>4&#45;&#45;7</title>
<path fill="none" stroke="#000000" d="M261.8615,-155.1616C271.988,-155.7541 283.5751,-155.7535 294,-154.0927 342.024,-146.4418 354.2537,-141.3318 398,-120.0927 407.2912,-115.5817 416.9062,-109.4084 424.8513,-103.8342"/>
<text text-anchor="middle" x="339" y="-154.2927" font-family="Times,serif" font-size="14.00" fill="#000000">18</text>
</g>
<!-- 5&#45;&#45;6 -->
<g id="edge10" class="edge">
<title>5&#45;&#45;6</title>
<path fill="none" stroke="#000000" d="M261.7826,-51.183C277.3102,-52.9746 296.796,-55.223 312.3082,-57.0129"/>
<text text-anchor="middle" x="287" y="-58.2927" font-family="Times,serif" font-size="14.00" fill="#000000">22</text>
</g>
<!-- 5&#45;&#45;7 -->
<g id="edge11" class="edge">
<title>5&#45;&#45;7</title>
<path fill="none" stroke="#000000" d="M255.081,-35.7212C281.2749,-21.2564 328.2144,-1.109 366,-16.2927 394.521,-27.7535 418.4301,-55.3819 431.7161,-73.3915"/>
<text text-anchor="middle" x="339" y="-20.2927" font-family="Times,serif" font-size="14.00" fill="#000000">19</text>
</g>
<!-- 6&#45;&#45;7 -->
<g id="edge12" class="edge">
<title>6&#45;&#45;7</title>
<path fill="none" stroke="#000000" d="M364.6562,-66.3129C375.0493,-68.9338 387.1384,-72.1112 398,-75.2927 404.7876,-77.2809 412.0932,-79.6035 418.8028,-81.8115"/>
<text text-anchor="middle" x="391" y="-79.2927" font-family="Times,serif" font-size="14.00" fill="#000000">25</text>
</g>
</g>
</svg>
