<svg width="100" height="280">
<rect x="10" y="5"  width="20" height="10" style="fill:rgb(0,0,255);stroke-width:2;stroke:rgb(0,0,0)" />
<text x="35" y="15" >Andi</text>
<rect x="10" y="25"  width="20" height="10" style="fill:rgb(0,0,255);stroke-width:2;stroke:rgb(0,0,0)" />
<text x="35" y="35" >Arpi</text>
<rect x="10" y="45"  width="10" height="10" style="fill:rgb(0,0,255);stroke-width:2;stroke:rgb(0,0,0)" />
<text x="25" y="55" >Babodi</text>
<rect x="10" y="65"  width="10" height="10" style="fill:rgb(0,0,255);stroke-width:2;stroke:rgb(0,0,0)" />
<text x="25" y="75" >Balazs</text>
<rect x="10" y="85"  width="20" height="10" style="fill:rgb(0,0,255);stroke-width:2;stroke:rgb(0,0,0)" />
<text x="35" y="95" >Bela</text>
<rect x="10" y="105"  width="10" height="10" style="fill:rgb(0,0,255);stroke-width:2;stroke:rgb(0,0,0)" />
<text x="25" y="115" >Beus</text>
<rect x="10" y="125"  width="10" height="10" style="fill:rgb(0,0,255);stroke-width:2;stroke:rgb(0,0,0)" />
<text x="25" y="135" >Cili</text>
<rect x="10" y="145"  width="10" height="10" style="fill:rgb(0,0,255);stroke-width:2;stroke:rgb(0,0,0)" />
<text x="25" y="155" >Geza</text>
<rect x="10" y="165"  width="10" height="10" style="fill:rgb(0,0,255);stroke-width:2;stroke:rgb(0,0,0)" />
<text x="25" y="175" >Gizi</text>
<rect x="10" y="185"  width="10" height="10" style="fill:rgb(0,0,255);stroke-width:2;stroke:rgb(0,0,0)" />
<text x="25" y="195" >Jani</text>
<rect x="10" y="205"  width="10" height="10" style="fill:rgb(0,0,255);stroke-width:2;stroke:rgb(0,0,0)" />
<text x="25" y="215" >Laci</text>
<rect x="10" y="225"  width="10" height="10" style="fill:rgb(0,0,255);stroke-width:2;stroke:rgb(0,0,0)" />
<text x="25" y="235" >Mate</text>
<rect x="10" y="245"  width="20" height="10" style="fill:rgb(0,0,255);stroke-width:2;stroke:rgb(0,0,0)" />
<text x="35" y="255" >Peti</text>
<rect x="10" y="265"  width="20" height="10" style="fill:rgb(0,0,255);stroke-width:2;stroke:rgb(0,0,0)" />
<text x="35" y="275" >Sanyi</text>
</svg>